<svg width="37" height="52" viewBox="0 0 37 52" fill="none" xmlns="http://www.w3.org/2000/svg">
<path d="M17.2315 0.0042963C17.5861 -0.0252537 18.1373 0.108022 18.2983 0.0881648C20.1457 -0.139349 19.9196 0.0832513 20.987 1.40425C22.4238 -0.0936441 23.5832 1.87254 22.6273 2.35577C22.5168 2.04217 22.5593 1.82474 22.3585 1.61581C22.2097 1.53887 22.1202 1.49539 21.949 1.52009C21.7805 1.54412 21.6304 1.63883 21.5361 1.78038C20.9823 2.61586 22.4134 3.3824 22.9509 3.69083C23.1291 3.22726 23.2124 2.92629 23.5984 2.60213C23.703 2.92522 22.9879 3.96352 23.3412 5.01512C23.8188 6.65498 25.4883 6.1862 26.8258 6.1265C28.4725 6.05293 30.2 6.56154 30.7437 8.32161C30.9937 9.1309 30.7491 9.81653 30.3458 10.5383C31.7361 9.90404 32.8172 10.468 32.9541 12.0166C32.973 12.2318 32.946 12.4803 32.9444 12.7004C33.1631 12.7026 33.3818 12.7079 33.6005 12.7164C33.9333 12.8567 33.9115 13.0714 34.1448 13.2299C34.3693 13.3824 34.9329 13.4555 35.1362 13.7141C35.3399 13.9732 35.1463 14.719 35.1856 15.0108C35.253 15.5081 35.311 15.3751 35.246 15.9102C37.1554 18.127 34.9868 19.2127 33.7841 21.037C32.4837 23.0099 34.7074 24.9896 35.9574 23.0204C36.3694 22.3716 35.5502 21.4769 35.3342 20.8659C36.0725 20.7745 37.0613 22.4781 36.8164 23.2483C36.5564 24.0654 36.3757 24.2983 35.7056 24.8066C37.4802 26.1978 37.1118 27.9823 35.1214 28.9003C35.6945 28.195 36.1548 27.616 35.9471 26.6307C35.7112 25.5113 34.0651 25.6264 33.5868 26.5047C33.255 27.114 33.3586 27.7319 33.6533 28.3356C34.3379 29.7519 35.5486 30.2506 35.9917 31.827C37.0395 32.2835 36.7445 32.9304 36.5433 33.5428C36.6183 33.7146 36.8549 34.6051 36.6518 34.7518C36.126 35.1307 34.9782 35.7264 34.4482 36.0407C35.0737 37.9686 34.7732 38.9641 32.9699 40.0741C31.7513 40.824 29.6983 40.5177 28.8433 41.4823C27.9603 42.4778 28.6845 44.1243 29.6312 44.8781C28.6958 44.6008 27.3732 44.1881 26.4435 44.5651C25.2303 45.0512 25.4198 46.6714 24.9703 47.6124C24.2591 49.1006 23.0732 49.1559 21.7646 48.581C20.7081 48.8227 20.1794 48.3487 20.0059 49.5523C19.9603 49.8672 19.3099 50.8419 19.0103 50.9928C18.1214 50.0834 20.269 48.2445 21.1471 48.0182C20.3897 46.7246 20.4242 45.9149 21.3134 44.7098C20.8444 44.8298 20.3299 44.909 19.8507 44.9939C18.2497 45.2025 17.0971 45.0627 15.5488 44.7126C16.4264 45.8757 16.4523 46.7736 15.7029 47.9941C16.5183 48.3569 17.548 49.0427 17.8477 49.9253C17.942 50.2026 18.0529 50.6953 17.9277 50.9671L17.8179 50.9572C17.0629 50.4084 17.0719 50.016 16.8252 49.2663C16.3295 48.0316 14.6127 48.9189 13.8189 48.9249C11.0767 48.9457 12.2091 45.5001 10.4041 44.555C9.55369 44.1102 7.98129 44.6378 7.17249 44.9199C8.56336 43.7905 9.13288 41.3409 6.83739 40.8657C6.35816 40.7668 5.84908 40.6953 5.37092 40.5945C4.92959 40.4996 4.50037 40.3555 4.09142 40.1643C2.23451 39.2866 1.58101 37.8467 2.49277 35.9654C1.48891 35.896 1.64504 35.3704 1.24915 35.2573C-0.011637 34.8972 -0.0902753 34.8413 0.288446 33.5489C0.412262 33.1261 -0.444759 32.3703 0.847809 31.8432C1.35062 30.0224 3.02015 29.4798 3.43415 27.5105C3.7164 26.1682 2.08026 25.3557 1.31056 26.047C0.256465 26.994 1.0543 28.1122 1.7661 28.9285C-0.184266 28.0563 -0.70505 26.1164 1.15233 24.8173C0.253503 24.1454 -0.074587 23.5487 0.0804698 22.3825C0.154867 21.8232 0.935201 20.8921 1.51234 20.8826C1.52533 21.112 0.655451 22.0588 0.786607 22.672C1.20687 24.7337 3.88424 23.7369 3.42384 21.9034C2.79313 19.3916 -0.59719 18.7906 1.5932 15.8848C1.53994 15.4022 1.63602 15.4608 1.64592 15.0635C1.65682 14.6267 1.55341 14.3025 1.62262 13.8234C1.95529 13.526 2.40969 13.3235 2.767 13.0609C3.27734 12.6857 3.3069 12.7142 3.90813 12.6995C3.85503 10.9297 4.53799 9.69624 6.48635 10.5344C6.41504 10.4072 6.34934 10.2769 6.28947 10.1438C5.98327 9.47042 5.91648 8.7592 6.18802 8.06226C6.41646 7.47832 6.83779 6.99004 7.38201 6.67838C8.41421 6.0746 9.76866 6.06155 10.9298 6.18122C13.9773 6.49531 14.0138 4.51902 12.9786 2.29519C13.5364 2.86855 13.6149 2.92368 13.9013 3.70018C14.3704 3.42616 15.3955 2.8919 15.452 2.24524C15.4856 1.86042 15.1121 1.52366 14.7194 1.50266C14.1051 1.67248 14.3764 2.09036 14.2761 2.39945C13.1774 1.65815 14.5794 0.0577431 15.8554 1.3957C16.4698 0.737593 16.3166 0.401234 17.2315 0.0042963ZM19.3427 44.2105C28.1615 42.9161 31.9088 33.3571 31.8512 25.4143C31.7923 17.3151 26.9958 6.85139 17.5567 7.35932C14.3171 7.68638 11.5698 9.43508 9.53079 11.9589C5.81644 16.5563 4.56769 22.6648 5.1356 28.4871C5.80181 35.3179 10.0077 43.4524 17.6083 44.2004C18.1712 44.2555 18.7752 44.2279 19.3427 44.2105ZM16.3666 1.93291C15.8035 2.85367 15.6731 3.12352 14.756 3.70765C16.4328 3.99892 17.0559 5.32839 16.037 6.73009C16.9363 6.57089 17.4379 6.53521 18.3383 6.46104C19.2618 6.48912 19.9681 6.56686 20.875 6.75647C19.7418 5.37053 20.4129 4.07269 22.0538 3.67688C21.2351 3.16223 20.7434 2.67132 20.5338 1.69523C20.4929 1.50427 20.4392 1.06082 20.2723 0.981797C19.4826 0.607744 19.175 0.861444 18.4358 0.254628C18.2721 0.369866 17.972 0.587149 17.7904 0.641671C16.687 0.973047 16.3395 0.604514 16.3666 1.93291ZM8.44977 43.8908C10.3396 42.8696 11.9995 43.6954 12.0978 45.8825C12.7869 45.1441 14.0208 44.8345 14.465 45.9363L14.4589 46.0453C14.074 46.0736 13.2931 45.7499 13.0956 46.1106C12.4907 47.2165 13.5221 48.0842 14.6098 47.6688C16.2203 46.3879 15.2035 44.3429 13.3758 44.1908C13.0799 44.1667 12.1474 44.3377 12.0204 44.2703C12.3261 43.9985 12.9105 43.9015 13.3048 43.8288C10.3374 42.2018 8.28307 39.8432 6.71809 36.8606C6.71492 37.8514 6.58551 38.1207 6.01484 38.9318C6.07443 37.7081 6.02716 36.1593 4.29554 36.4306C3.4988 37.0269 3.22112 37.8434 3.9132 38.6553C5.29133 40.2714 9.00146 39.5039 8.89589 42.4051C8.88417 42.912 8.66367 43.4403 8.44977 43.8908ZM3.26482 33.5193C3.82561 33.3206 4.29784 33.137 4.03162 32.4153C3.67289 32.066 3.13334 32.4994 2.79911 32.7358C2.7796 32.2182 3.10769 31.6198 2.17788 31.5431C1.67709 31.9664 1.86689 32.1205 1.84373 32.7156L1.78037 32.6556C1.4673 32.3629 1.3861 32.2915 0.946916 32.3051C0.593846 32.486 0.462354 32.7534 0.678748 33.1444C0.775431 33.3195 1.17146 33.4398 1.36677 33.5025C0.939173 33.6996 0.542072 33.839 0.623674 34.3997C1.02596 35.046 1.5868 34.5936 1.95603 34.179C1.75688 34.8285 1.60781 35.4505 2.51855 35.4922C3.00829 35.0129 2.76006 34.906 2.8216 34.3103C3.14451 34.7101 3.6247 34.9288 4.062 34.5317C4.20082 33.942 3.72824 33.6883 3.26482 33.5193ZM33.5911 33.5072C33.114 33.6922 32.5766 33.9911 32.8422 34.603C33.2875 34.9099 33.7489 34.6682 34.0223 34.2657L34.0865 34.2375C34.2084 34.7537 33.6013 35.3697 34.618 35.5036C35.1993 35.1112 35.0799 34.9806 34.9356 34.3115C35.3029 34.4671 35.4425 34.7841 36.0016 34.7377C36.3393 34.5309 36.2964 34.2509 36.1714 33.9144C36.0002 33.7037 35.7342 33.627 35.4797 33.5247C35.6659 33.4445 36.1784 33.2488 36.2066 33.0644C36.379 31.9382 35.5159 32.2369 35.0002 32.7386C34.7742 32.3177 35.4664 31.6708 34.3666 31.5606C33.6955 32.07 34.201 32.3958 34.0174 32.6887L33.9868 32.6624C33.4564 32.2196 32.7053 32.0432 32.768 32.9606C32.9711 33.3294 33.2133 33.39 33.5911 33.5072ZM3.07071 24.8126C3.24778 24.9364 3.56922 25.1497 3.71747 25.2831L4.14554 25.8054C4.15409 25.5475 4.23664 23.8473 4.16972 23.7565C3.77922 24.3111 3.64314 24.4558 3.07071 24.8126ZM6.16708 35.719C5.20758 33.5335 4.59826 31.3384 4.33878 28.9784C4.3165 28.7751 4.27185 28.4331 4.21126 28.2427C3.62771 29.3864 3.20658 29.7949 2.24372 30.6592C2.10645 30.7824 1.79128 31.0496 1.76206 31.2187L1.82723 31.197L1.9839 31.1485C2.25424 31.0644 2.61543 31.0913 2.87256 31.2253C3.03443 31.3094 3.22772 31.7086 3.32313 31.7651C3.75928 32.0256 4.43451 31.8648 4.56292 32.5103C4.66295 33.0137 4.48892 33.1349 4.35642 33.4762C4.26848 33.7023 4.69076 33.9757 4.54319 34.4764L4.38045 34.8891C5.30642 35.1893 5.1288 34.811 6.16708 35.719ZM30.6886 35.7056C31.3998 35.1192 31.5698 35.015 32.4909 34.9301C32.411 34.7301 32.3098 34.5054 32.2669 34.298C32.4064 33.5321 32.5748 33.5179 32.2969 32.684C32.0492 31.9415 33.5508 31.7187 33.4694 31.8048C34.3335 30.888 33.9604 31.1008 35.0569 31.2017C35.0125 30.9951 34.1588 30.2345 33.9559 30.0459C33.3123 29.4489 33.0163 28.94 32.6108 28.1755C32.3008 30.9797 31.844 33.0811 30.6886 35.7056ZM22.969 47.8022C23.6777 47.5559 24.0999 47.0975 23.8594 46.3147C23.6621 45.6724 22.6331 46.0979 22.4008 45.9248C22.5201 45.6192 22.7256 45.4699 23.0084 45.3312C23.701 44.9906 24.2482 45.3978 24.7622 45.8494C24.8106 43.5864 26.4945 42.9975 28.3957 43.8549C27.6811 42.4509 27.6898 41.0805 29.2281 40.301C30.474 39.6696 32.8276 39.5894 33.2749 38.0029C33.5362 37.0767 32.7923 36.275 31.7719 36.4224C30.7069 37.0767 30.7715 37.7256 30.8438 38.8854C30.2405 38.1322 30.1515 37.8454 30.133 36.8721C28.4877 39.8735 26.5942 42.1695 23.5423 43.8275C23.9238 43.8968 24.5294 44.0031 24.8103 44.2845C24.6377 44.3344 24.1622 44.1782 23.9398 44.1525C22.5638 43.9985 21.0456 45.3123 21.5011 46.7487C21.743 47.5121 22.2064 47.7765 22.969 47.8022ZM27.9412 11.3576C30.4792 14.6824 31.8529 17.9346 32.4474 22.1079C33.1358 19.2002 35.5046 19.212 35.4951 17.187C35.4088 16.9059 35.3436 16.603 35.1599 16.3796C34.7652 16.1877 34.4922 16.399 34.1008 16.5649C33.7796 16.9566 33.3016 17.2695 32.7917 16.894C32.581 16.7388 32.435 16.3835 32.1361 16.3796C31.5844 16.3456 31.1635 15.9593 31.3102 15.3806C31.6903 14.2164 30.66 13.6801 32.316 13.286C32.5664 12.7124 32.6792 12.4045 32.4611 11.7964C32.1803 11.0129 31.0742 10.524 30.6738 11.4993C30.5515 11.7974 30.7174 12.2383 30.9774 12.4192C31.5193 12.4103 31.547 11.8483 31.8928 11.7644C32.0075 11.9397 32.0286 12.3019 31.9754 12.486C31.6808 13.5081 30.0902 13.2998 29.7309 12.4256C29.4933 11.8481 29.7507 11.56 29.7906 11.0508C29.0688 11.4161 28.7552 11.4669 27.9412 11.3576ZM33.5325 16.5587C33.8706 16.054 33.735 16.0937 33.6793 15.5666C34.0392 15.6049 34.0715 16.1059 34.5767 15.9261C34.7311 15.7615 34.7666 15.733 34.8378 15.5211C34.7866 15.1023 34.4671 15.0174 34.1126 14.8396C34.381 14.7356 35.0117 14.5455 34.8209 14.1155C34.7409 13.9352 34.6213 13.8608 34.4402 13.7975C34.0891 13.7876 33.9621 13.9273 33.736 14.1788L33.6815 14.1275C33.6768 13.7759 33.7489 13.5307 33.5972 13.2839C33.3689 13.1634 33.3171 13.1722 33.0558 13.1749C32.8089 13.5535 32.7647 13.6328 32.8659 14.0912C32.6221 14.0935 32.0395 13.2871 31.7466 14.2322C31.8167 14.678 32.0589 14.6371 32.4064 14.8536C32.1803 14.9995 31.8804 15.1396 31.7456 15.3489C31.6393 16.0426 32.3584 16.1236 32.8603 15.5158C33.0799 15.7949 32.4231 16.6383 33.5325 16.5587ZM26.2608 9.6251C26.2466 9.04952 26.1722 8.73066 26.4733 8.2368L26.5703 8.23073C26.8739 8.69364 26.7002 9.04494 27.2049 9.63392C29.0666 11.0066 30.0748 8.44237 28.5952 7.59705C26.7 6.51414 25.2328 7.75302 23.3431 6.29021C22.9682 6.83698 22.8678 6.90449 22.2629 7.18483C23.9374 7.84416 24.8782 8.4522 26.2608 9.6251ZM3.86701 16.5141C4.07019 16.0901 4.05222 16.0061 3.96114 15.533C4.355 15.8609 5.04883 16.2907 5.14039 15.4317C4.89935 14.9097 4.46434 15.0403 4.43297 14.8221C4.85855 14.7254 5.07656 14.5834 5.07576 14.1314C4.97335 13.9257 4.95335 13.9082 4.74874 13.8027C4.39924 13.7615 4.2357 13.938 3.99318 14.1571L3.92142 14.0762C3.97912 13.7063 4.04564 13.6392 3.9198 13.3412C3.72023 13.166 3.62853 13.1789 3.36003 13.1583C3.04378 13.5677 3.05207 13.6286 3.18484 14.1261L3.06142 14.159C2.85547 14.0289 2.65713 13.7859 2.44584 13.7731C2.06861 13.8845 1.97407 14.1325 2.10462 14.4952C2.26237 14.6809 2.40564 14.7236 2.6271 14.8267L2.61814 14.9011C2.23235 15.0515 1.98524 15.2295 2.05621 15.6861C2.44443 16.1564 2.76787 15.9263 3.10775 15.5549C3.2072 16.0464 2.90892 16.7306 3.86701 16.5141ZM14.5412 7.1586C13.9849 6.93008 13.8195 6.79174 13.5042 6.26564C13.1233 6.59231 12.8045 6.84089 12.2484 6.95982C10.7983 7.2698 7.90449 6.637 7.5207 8.71019C7.4657 9.00745 7.64829 9.45905 7.86602 9.69092C8.07879 9.921 8.37941 10.0498 8.69282 10.045C9.15875 10.0355 9.44561 9.80126 9.73932 9.48705L9.77715 9.42963C10.0957 8.94 10.0704 8.44169 10.3205 8.17063C10.591 8.33359 10.609 9.28046 10.6187 9.58154C12.1583 8.29402 12.7628 7.99716 14.5412 7.1586ZM32.6498 23.7302C32.677 24.4181 32.6992 25.1066 32.7162 25.7952C32.8784 25.5906 33.069 25.3294 33.257 25.1557L33.7578 24.8247C33.2048 24.4249 33.028 24.2887 32.6498 23.7302ZM4.41176 22.111C4.51552 21.2651 4.67057 20.4261 4.87605 19.5989C5.69469 16.6046 6.89078 13.7185 8.95184 11.3504C8.66279 11.3904 8.49259 11.4173 8.20012 11.403C7.91821 11.3893 7.25975 11.1068 7.0775 11.1805L7.10131 11.2426C7.39091 12.0103 7.13531 12.851 6.30139 13.125C5.9667 13.2337 5.60137 13.1919 5.29988 13.0105C4.84252 12.7413 4.79318 12.3168 4.90515 11.8404L4.98694 11.787C5.29928 12.1039 5.55027 12.5588 6.02711 12.261C6.28207 11.9247 6.31399 11.4344 5.94771 11.1679C5.69921 10.9872 5.33659 11.0232 5.04559 11.0345C4.58911 11.3179 4.42966 11.5275 4.28633 12.074C4.20055 12.401 4.23362 12.7334 4.4407 13.0741C4.79573 13.6582 5.58112 13.196 5.57446 14.2499C5.5737 14.3718 5.39193 14.7463 5.40769 14.8329C5.52679 15.4877 5.85831 15.615 5.21949 16.2163C5.12436 16.3059 4.67232 16.3604 4.54892 16.434C4.15033 16.6719 4.08866 17.1926 3.46244 17.0062C2.91391 16.8429 2.37273 16.2199 1.76233 16.3182C1.2099 16.6658 1.25918 17.7922 1.61117 18.2428C2.70162 19.6386 3.9769 20.209 4.41176 22.111ZM14.0071 3.97684C14.0232 4.28088 13.9786 4.40393 14.1265 4.62868C14.603 4.86071 14.9431 4.25477 15.325 5.16045C15.0883 5.28578 14.9654 5.03613 14.6108 5.13951C14.2637 5.49869 14.3521 5.85476 14.6817 6.18325C16.3414 6.58705 16.421 3.84942 14.0071 3.97684ZM22.4623 5.85558C22.4765 5.10255 22.2076 5.08526 21.5868 5.18212L21.5262 5.11239C21.7058 4.51244 22.2641 4.63978 22.7795 4.67405C22.8124 4.44682 22.8325 4.30357 22.8401 4.07148C22.6648 3.94169 22.4413 3.95623 22.2105 3.96613C19.9936 4.56621 21.1872 7.22497 22.4623 5.85558Z" fill="#E0BFC4"/>
<path d="M17.5779 8.35965C19.7533 8.23757 21.9507 8.73997 23.7146 10.0533C31.8741 16.1289 32.5617 30.1066 27.0651 38.1142C25.15 40.9041 22.7487 42.62 19.4777 43.2017C10.1478 43.87 5.97702 32.8483 6.25199 25.1694C6.504 18.1328 9.74933 9.51175 17.5779 8.35965ZM18.0788 8.77194C16.1504 8.9195 14.4851 9.52102 12.9567 10.7227C8.00881 14.6131 6.28874 21.7781 6.76641 27.7764C6.7903 28.1014 6.8297 28.426 6.8845 28.7477L7.09882 30.1767C7.94461 36.6386 13.7114 44.8594 20.9813 42.404C28.7799 39.77 31.2833 28.4406 29.7456 21.3019C29.5875 20.5678 28.4543 17.1111 28.3381 16.8077C28.2222 16.5052 28.1719 16.339 28.1717 16.338C26.3905 12.2779 22.79 8.64022 18.0788 8.77194Z" fill="#E0BFC4"/>
<path d="M18.3398 1.60278C18.8932 1.66377 19.3735 2.14007 19.8472 2.42695C19.9678 2.49992 19.9658 3.76908 19.9701 3.91729C19.98 4.25298 18.9579 4.76039 18.5727 5.00149C17.5023 4.94932 16.4862 3.80766 16.9397 2.7561C17.1946 2.16484 17.7975 1.84699 18.3398 1.60278ZM18.4422 4.57669C18.7557 4.29822 18.7378 4.33699 18.7113 3.90203L18.7619 3.81681L18.8224 3.85874C19.0008 3.98125 19.0518 4.03657 19.2667 4.04021C19.4749 3.92606 19.4226 3.99344 19.5008 3.79856C19.4607 3.52023 19.3732 3.43643 19.1254 3.30907C19.3659 3.10921 19.4507 3.07403 19.4955 2.79427C19.3061 2.38758 19.0429 2.53478 18.7558 2.77131C18.678 2.57437 18.696 2.53768 18.7194 2.31851C18.5753 2.11549 18.6309 2.18079 18.3666 2.07425C17.9369 2.49661 18.2479 2.44512 18.1382 2.78344L18.0771 2.73787C17.903 2.6095 17.8473 2.54508 17.6337 2.53996C17.4261 2.64753 17.4959 2.5827 17.3838 2.78829C17.4047 3.11346 17.4323 3.1247 17.7395 3.27332C17.5221 3.54324 17.4528 3.47304 17.382 3.76612C17.4505 3.98421 17.3874 3.90181 17.5709 4.02687C17.8275 4.04627 17.9467 3.97801 18.1303 3.7958C18.1931 3.94464 18.1586 4.06572 18.1389 4.22942C18.2516 4.47855 18.1926 4.38889 18.4422 4.57669Z" fill="#E0BFC4"/>
<path d="M18.3666 46.0508C19.3492 46.2527 19.5284 46.8208 19.5383 47.6897C19.5416 47.9907 18.7584 48.3541 18.4961 48.5555C18.076 48.3979 17.5856 48.1563 17.3765 47.7491C17.252 47.5088 17.2299 47.2287 17.315 46.9729C17.4696 46.5045 17.9247 46.2889 18.3666 46.0508ZM18.7056 48.1623C18.6929 47.9946 18.6442 47.8157 18.7265 47.7121C18.9325 47.8762 18.9023 47.9099 19.1131 47.9206C19.2938 47.743 19.2469 47.8297 19.3063 47.5968C19.2112 47.4137 19.1407 47.3962 18.9536 47.2852C19.1897 47.1285 19.2269 47.1594 19.3242 46.9251C19.2249 46.709 19.2898 46.7731 19.0941 46.6646C18.8839 46.7117 18.8719 46.7139 18.6904 46.8249C18.6227 46.6377 18.6271 46.6243 18.6315 46.4216C18.4826 46.3018 18.4738 46.3026 18.2807 46.2702C18.1702 46.5092 18.1744 46.5643 18.1614 46.8295L18.1274 46.8079C17.9746 46.7131 17.9541 46.707 17.7834 46.6531C17.5875 46.7265 17.6566 46.6835 17.5224 46.8638C17.5346 47.1164 17.6969 47.1688 17.9107 47.2819L17.8432 47.323C17.7458 47.3822 17.6823 47.432 17.5922 47.502C17.5454 47.7329 17.5424 47.6387 17.6254 47.8628L17.7552 47.9234C17.9125 47.8494 17.9815 47.8116 18.1488 47.7686C18.2087 48.0815 18.136 48.0862 18.3199 48.2431C18.5223 48.2505 18.5306 48.2538 18.7056 48.1623Z" fill="#E0BFC4"/>
<path d="M27.7843 44.8917C28.1995 44.8775 28.5315 44.9649 28.7363 45.3487L28.7034 45.4551C28.2384 45.6408 27.6926 45.3649 27.2719 45.3614C27.0227 45.3594 26.6464 46.1955 26.478 46.4768C26.271 46.678 26.1261 46.8895 25.8268 46.8525L25.7508 46.7016C25.7442 46.4648 25.7839 46.2883 25.876 46.0763C26.3226 45.0498 26.8449 45.2995 27.7033 44.9273L27.7843 44.8917Z" fill="#E0BFC4"/>
<path d="M8.63327 44.8937C9.03429 44.8534 9.8324 45.0989 10.2067 45.274C10.6966 45.5022 11.3511 46.2958 11.0102 46.8471C10.8125 46.8788 10.8301 46.835 10.6034 46.7038C10.176 46.2689 10.1203 45.9127 9.76002 45.4719C9.50431 45.1589 8.30896 45.7916 8.09021 45.3373C8.21523 45.1091 8.40389 45.031 8.63327 44.8937Z" fill="#E0BFC4"/>
<path d="M11.808 2.34119C12.8677 2.54829 12.8848 3.43884 13.1864 4.35387C12.9853 5.07808 12.9539 5.14694 12.4017 5.67298L12.2256 5.70778C11.765 5.22691 12.7791 3.97302 12.6701 3.73433C12.3854 3.11116 11.9395 3.26422 11.808 2.34119Z" fill="#E0BFC4"/>
<path d="M24.6539 2.4123C24.9033 2.40611 24.8673 2.36605 25.02 2.48519C25.0685 2.97315 24.1133 3.56427 24.1705 3.75679C24.3641 4.40567 24.7232 4.85631 24.7335 5.6965L24.5536 5.68877C24.3275 5.55873 24.1 5.44576 23.9661 5.21112C23.5158 4.42269 23.8759 2.87171 24.6539 2.4123Z" fill="#E0BFC4"/>
<mask id="mask0_22_114" style="mask-type:alpha" maskUnits="userSpaceOnUse" x="6" y="8" width="25" height="36">
<path d="M17.6185 8.44218C19.7938 8.32006 21.9914 8.82235 23.7553 10.1357C31.9148 16.2114 32.6024 30.1893 27.1058 38.1966C25.1907 40.9866 22.7893 42.7025 19.5185 43.2839C10.1884 43.9525 6.0178 32.9308 6.29276 25.2519C6.54477 18.2152 9.78993 9.59428 17.6185 8.44218Z" fill="#FDFCFC"/>
</mask>
<g mask="url(#mask0_22_114)">
<path d="M17.0532 37.4866C16.0143 37.7515 15.0162 37.8837 14.0588 37.8837C12.7144 37.8837 11.5227 37.6393 10.4839 37.1505C9.46539 36.6615 8.67096 35.9996 8.10062 35.1644C7.55062 34.3089 7.27563 33.382 7.27563 32.384C7.27563 30.8765 7.93766 29.4201 9.2617 28.0146C10.5857 26.609 12.5718 25.4685 15.2199 24.5925C14.4458 23.8185 14.0588 22.9324 14.0588 21.9342C14.0588 20.6916 14.5477 19.5712 15.5254 18.5732C16.5032 17.5547 17.7457 16.7399 19.2531 16.1288C20.7604 15.5177 22.2882 15.1307 23.8363 14.9677C24.4474 14.927 24.8854 14.9066 25.1502 14.9066C26.5556 14.9066 27.6964 15.1409 28.5723 15.6094C29.4482 16.0779 29.8862 16.7603 29.8862 17.6565C29.8862 18.6547 29.3158 19.5204 28.175 20.2536C27.0547 20.987 25.8326 21.4861 24.5085 21.7509C24.4271 21.7712 24.3251 21.7815 24.203 21.7815C23.8568 21.7815 23.5818 21.6797 23.3781 21.476C23.1742 21.2723 23.0724 21.0277 23.0724 20.7426C23.0724 20.4777 23.1845 20.2639 23.4085 20.1009C23.6326 19.9177 23.9586 19.8565 24.3862 19.9177C24.9364 19.9991 25.5066 20.0398 26.0974 20.0398C27.9511 20.0398 28.8779 19.4083 28.8779 18.1454C28.8779 17.2288 28.5417 16.5464 27.8695 16.0983C27.2177 15.6297 26.3519 15.3955 25.2723 15.3955C24.8854 15.3955 24.478 15.426 24.0501 15.4871C22.9298 15.6501 21.8196 16.0168 20.7197 16.5871C19.6401 17.1371 18.7235 17.8501 17.9698 18.726C17.2365 19.5816 16.8087 20.5389 16.6865 21.5981C16.6661 21.7611 16.656 21.9852 16.656 22.2703C16.656 22.9832 16.7782 23.5842 17.0226 24.073C18.3059 23.7674 19.4771 23.6148 20.5365 23.6148C21.3513 23.6148 21.9929 23.7166 22.4613 23.9203C22.9503 24.124 23.1947 24.4295 23.1947 24.8369C23.1947 25.3462 22.8687 25.7637 22.2169 26.0897C21.5651 26.4157 20.8623 26.5785 20.1087 26.5785C19.4161 26.5785 18.6522 26.446 17.817 26.1814C17.0022 25.8961 16.2791 25.4988 15.6476 24.9896C13.794 25.6823 12.4088 26.6194 11.4922 27.8006C10.5755 28.9618 10.1172 30.1941 10.1172 31.4979C10.1172 31.7627 10.158 32.1396 10.2395 32.6283C10.4839 33.871 11.0848 34.9099 12.0422 35.7449C13.0199 36.5801 14.1708 36.9977 15.4949 36.9977C15.9634 36.9977 16.4523 36.9365 16.9615 36.8144C19.63 36.1626 21.5446 34.2784 22.7059 31.1618C22.828 30.8765 22.9808 30.6627 23.1641 30.5201C23.3678 30.3571 23.5818 30.2757 23.8057 30.2757C24.091 30.2757 24.3354 30.3673 24.5391 30.5507C24.7428 30.7339 24.8447 30.9682 24.8447 31.2535C24.8447 31.4775 24.7936 31.6811 24.6918 31.8646C23.9993 33.2498 22.9604 34.431 21.5752 35.4088C20.2105 36.3866 18.7031 37.0793 17.0532 37.4866ZM17.267 24.5008C17.593 25.01 18.0207 25.397 18.5504 25.6618C19.08 25.9267 19.6095 26.0591 20.1392 26.0591C20.5262 26.0591 20.842 25.9878 21.0864 25.8453C21.3513 25.7025 21.4837 25.5092 21.4837 25.2648C21.4837 24.9183 21.3003 24.6638 20.9336 24.5008C20.5669 24.3176 20.068 24.2258 19.4364 24.2258C18.7846 24.2258 18.0615 24.3176 17.267 24.5008Z" fill="#E0BFC4"/>
</g>
</svg>
