<svg width="502" height="66" viewBox="0 0 502 66" fill="none" xmlns="http://www.w3.org/2000/svg">
<path d="M35.5311 36.167C36.3018 36.2157 37.6123 36.1548 38.3017 35.8403C36.7711 35.0296 30.967 36.1581 27.3805 33.6256C24.6133 31.9104 22.3698 29.668 21.5374 26.4121C19.9691 20.2748 27.2526 13.7137 32.8723 17.5388C34.479 18.6327 34.4899 19.8236 34.7072 21.6377C33.0887 23.358 30.929 24.9377 29.1104 26.6721C31.8895 25.6178 34.1707 24.4226 36.215 22.2362C36.5428 20.7171 36.46 19.1027 35.4161 17.9249C32.2651 14.3691 26.2918 14.2644 22.7007 17.2314C21.633 18.113 19.7481 20.2997 19.5932 21.5439C20.3322 21.0136 22.7016 18.2007 23.7388 17.1787C22.8802 18.8534 21.3472 21.0301 20.2804 22.6484L19.3963 22.6018C19.2121 23.9127 20.149 24.8032 20.52 26.0866C22.7886 33.9333 28.1636 35.6744 35.5311 36.167Z" fill="#0C0C0D"/>
<path d="M66.5638 25.1959C69.9139 25.5302 72.314 23.7024 74.6348 21.6091C74.3429 20.0927 74.4966 18.0284 74.006 16.747C72.3941 12.5368 68.572 12.8059 65.1994 14.2041C64.794 14.504 64.9288 14.4087 64.6567 14.8833C67.9642 15.9707 72.3923 10.7604 73.879 20.262C71.3237 23.6503 70.6045 23.906 66.5638 25.1959Z" fill="#0C0C0D"/>
<path d="M466.094 21.87C466.274 21.2094 466.67 19.6105 467.001 19.1177C470.906 13.3006 479.106 17.7493 479.833 23.5207C480.515 28.9478 476.507 32.765 471.944 34.5188C469.15 35.5938 466.216 35.3496 463.282 35.7685V35.9548C470.127 37.0139 478.135 34.2634 480.731 27.1002C481.175 25.8794 481.486 23.5943 480.895 22.4281C480.055 21.2569 479.176 20.2754 478.88 18.8985L479.094 18.5916L479.021 19.4294L479.705 19.1846L479.669 19.0754C480.317 20.0413 480.579 20.3671 480.993 21.4344L481.3 21.5793L481.498 21.2773C480.856 19.1582 479.76 17.9898 477.952 16.8253C473.573 14.0051 470.45 14.883 466.335 17.3021C463.078 22.7425 467.12 24.7563 471.856 26.4134C470.602 25.0824 467.683 22.7069 466.094 21.87Z" fill="#0C0C0D"/>
<path d="M433.109 25.2876C433.952 25.3163 433.973 25.3288 434.85 25.143C431.298 24.1253 430.345 23.9122 428.047 21.1861C428.108 16.886 426.833 16.394 431.468 14.2213C433.267 14.5808 435.142 14.8929 436.953 15.2201C436.335 13.909 433.866 13.3722 432.561 12.9722C430.394 13.7153 427.006 14.6426 426.382 17.1441C429.015 22.8501 425.211 23.068 433.109 25.2876Z" fill="#0C0C0D"/>
<path d="M480.896 22.4281L480.993 21.4344C480.579 20.3671 480.317 20.0414 479.669 19.0754L479.706 19.1847L479.021 19.4294L479.094 18.5916L478.881 18.8985C479.176 20.2755 480.056 21.257 480.896 22.4281Z" fill="#0C0C0D"/>
<path d="M9.01465 49.0858C10.5988 50.7834 13.0419 53.512 14.7856 54.8737C23.7498 61.8753 36.7857 65.5294 47.9841 65.8968C73.0789 66.72 95.8795 57.6148 113.774 40.0832C117.331 36.5981 121.891 32.2523 125.629 29.0467C128.211 26.8323 129.307 29.6214 133.269 25.617C134.966 25.6167 136.809 25.5561 138.558 25.9324C140.859 26.4274 145.719 28.1754 144.496 31.3561C144.185 32.1641 144.24 32.456 144.642 33.2122C145.011 33.8914 145.391 34.5636 145.784 35.2291C145.294 36.8736 144.089 37.4398 144.15 38.3802C146.415 38.7084 147.577 35.307 148.075 33.5267C151.359 41.2297 155.7 44.0028 163.81 40.7411C169.458 31.4718 156.718 32.1397 155.014 34.8324C156.19 35.3027 161.785 32.6402 163.905 35.6842C164.179 36.8428 164.052 37.6511 163.369 38.7757C160.538 43.4408 151.279 39.9356 150.235 35.4026C149.878 33.8527 151.986 33.3434 150.849 30.8227C150.201 30.3621 149.87 30.1259 149.272 29.5703C148.991 27.5611 150.6 23.2713 151.513 21.466C155.863 12.8637 164.971 7.4668 173.881 4.59115L172.179 4.23131L169.582 5.20001L167.649 6.00583L167.291 6.15257C160.531 8.96399 153.22 15.5038 150.068 22.3111C149.105 24.3913 148.827 28.1425 147.622 30.2562C145.674 29.7752 143.533 25.8291 140.596 24.8492C137.106 23.685 133.402 24.7901 130.367 24.2001L130.187 23.7225C130.428 23.527 136.701 20.354 137.643 19.8136C145.054 15.5628 151.748 10.3071 159.294 6.33158C162.677 4.57257 166.729 3.60632 170.432 2.71159C171.932 2.34901 173.735 2.2799 175.134 1.72979C160.01 0.94101 146.021 14.8967 133.426 21.6234C130.159 23.3681 127.918 20.754 125.982 24.8507C121.716 27.4338 114.24 27.8573 109.37 26.8048C106.152 26.1092 99.5269 22.3812 99.1316 18.8534C99.6745 17.8677 99.9405 17.6357 99.7753 16.5224C99.2034 15.3707 98.6948 15.052 97.5349 14.3902C97.373 11.397 97.5386 9.05259 99.7111 6.30997C103.545 1.46951 117.655 -0.894089 118.434 7.63971C118.614 9.62125 116.804 11.4807 115.428 12.9219C114.134 13.0211 112.74 13.0881 111.47 13.3146C109.261 11.5851 107.971 10.7964 105.336 9.76373C107.07 11.4902 109.039 12.9627 111.185 14.1375C112.794 13.9761 114.376 13.7862 115.994 13.7776C123.338 6.92065 117.904 0.282829 109.417 0.608871C105.634 0.743431 102.058 2.36758 99.4667 5.12755C96.5241 8.31068 95.9586 11.9249 95.5998 16.0913C93.0341 9.4797 89.7665 5.5988 83.0497 2.64065C77.4477 0.149796 71.0857 -0.0115509 65.3647 2.19192C59.0633 4.67181 55.8457 8.40748 54.6934 15.0249C50.8144 7.16023 44.0552 1.98216 35.2255 0.795189C33.9204 1.58457 32.7517 0.708138 31.4162 1.40894C32.1345 1.52827 33.4554 1.5042 34.2753 1.59036C40.1957 2.2114 46.3689 4.97655 50.2096 9.62916C51.2402 10.8779 53.1174 13.3737 52.982 14.9719C51.9213 15.7181 51.4812 15.702 51.3172 16.9778C51.7426 18.2047 52.079 18.5204 52.9235 19.458L53.195 19.7573L53.1667 19.9789C51.2745 33.85 42.0556 30.1719 41.3385 36.0175L41.6687 36.2644C42.3405 35.9195 42.5797 35.7771 43.3278 35.567L43.5938 35.9853C42.2446 39.478 44.0732 42.9044 46.5722 45.4226C49.2119 48.0827 52.4457 49.1044 56.1759 49.0457C56.0782 48.8231 51.4809 47.754 50.7921 47.473C46.134 45.573 45.0617 42.9345 44.3778 38.3976C47.4558 37.3997 47.0586 37.2843 49.8699 35.4601C50.5487 35.0199 51.1193 35.2872 51.7128 35.5174C52.8219 36.715 52.8715 37.7093 53.2873 39.3371C52.3331 40.3243 51.0874 41.3049 51.1902 42.7519C52.198 42.2392 53.8588 40.366 54.2947 39.3675C56.4891 34.3386 49.3772 34.5033 47.5967 33.604C47.6484 31.8493 50.1548 31.5972 51.1081 29.7256C52.5665 26.8627 54.2734 22.3559 55.1356 19.276L55.2427 18.883L55.6673 18.8903C56.6808 20.2438 59.1921 22.6783 60.866 23.0001C61.4209 22.1075 58.4221 21.5753 57.8535 18.9618C58.2927 17.9943 58.4044 17.8445 58.5271 16.8125C57.6989 14.5768 55.646 14.7692 56.9468 11.7157C60.7288 2.83853 72.7168 -0.133934 81.3459 2.73989C85.924 4.26448 94.5169 10.375 93.256 16.1324C92.5645 18.7024 93.6367 19.0723 95.2669 20.5674C94.653 33.9916 84.9796 41.9768 73.0382 46.5831C68.5042 48.3321 64.2657 48.6219 59.4992 49.193C69.4556 51.1374 81.7467 45.3051 88.3382 38.1114C91.0004 35.2059 93.1802 32.7279 94.7571 29.0552C95.6494 26.9759 95.9194 20.0383 97.1922 18.8236C99.0043 19.76 100.95 23.6537 103.386 25.1905C112.82 31.1403 118.402 27.6667 127.321 26.3296C121.664 30.2492 114.776 37.5284 109.295 42.5607C86.1635 63.7965 46.2158 73.711 18.3532 56.2159C15.464 54.4015 12.2277 50.9532 9.83793 48.4304L9.01465 49.0858Z" fill="#0C0C0D"/>
<path d="M368.159 25.6264C371.126 29.1469 373.99 27.4204 377.046 30.2093C384.043 36.5935 390.337 43.218 397.971 48.9455C416.046 62.3563 438.639 68.184 460.945 65.1893C472.565 63.5265 485.86 57.9192 492.915 48.2822C494.975 45.4643 496.545 42.5092 498.624 39.7757L498.889 39.4305C498.661 38.9553 498.603 38.8031 498.448 38.2993C498.792 37.2465 498.993 36.3771 499.656 35.4726C498.713 34.3176 499.014 34.7228 498.728 32.9361C493.742 60.4296 460.689 68.5442 436.934 64.0432C418.694 60.5873 403.418 53.6687 389.993 40.7231C384.85 35.8711 379.463 30.2754 373.844 26.1561C379.63 27.3866 385.455 29.6172 391.399 28.0503C394.568 27.2146 398.013 25.5981 400.192 23.0817L399.517 22.8141C394.519 26.8411 390.106 27.8013 383.663 27.1948C381.554 26.9963 376.961 26.0937 375.272 24.8264C373.619 20.9126 371.942 23.5751 368.271 21.6265L367.891 22.1312C368.838 22.7992 371.218 23.9067 372.359 24.4741C367.41 24.4507 357.321 22.9203 355.458 29.6047L356.246 30.1956C359.287 25.5177 363.231 25.6103 368.159 25.6264Z" fill="#0C0C0D"/>
<path d="M207.764 28.0479L207.886 27.7102C209.433 23.3389 208.869 19.732 207.293 15.7038C205.425 10.9312 198.699 7.75905 198.31 6.5873C199.433 6.43752 200.191 7.01747 201.212 7.40927C212.059 11.5739 224.379 21.0819 236.499 17.7343L234.6 17.3867C218.757 17.9809 204.752 5.07612 189.524 1.79588C188.417 1.55751 187.204 0.561096 186.085 0.28924C182.913 0.674648 179.329 1.2001 176.156 1.47591L175.859 1.85129L177.721 1.74411L178.033 2.05464C177.126 3.29763 173.819 3.84196 172.179 4.23133L173.881 4.59116C178.069 3.78442 181.378 3.35212 184.888 5.49623C185.791 6.04755 187.636 5.01858 188.599 4.52541C190.234 5.05725 192.829 5.59181 194.291 6.12426C197.465 7.28079 202.8 11.0905 204.81 13.8035C207.464 17.3879 207.715 22.625 207.076 26.8877L207.764 28.0479ZM185.802 2.91891C186.23 1.8531 185.98 2.00441 186.779 1.5018C187.448 2.51098 187.177 4.36435 185.91 4.48642L183.666 4.06449L183.676 3.77559C184.565 3.38835 184.513 3.38074 185.462 3.52413C185.728 3.17525 185.824 3.19899 185.802 2.91891Z" fill="#0C0C0D"/>
<path d="M185.91 4.48645C187.177 4.36437 187.448 2.51101 186.779 1.50182C185.981 2.00444 186.23 1.85313 185.802 2.91894C185.824 3.19902 185.728 3.17528 185.463 3.52416C184.513 3.38077 184.566 3.38838 183.676 3.77562L183.667 4.06451L185.91 4.48645Z" fill="#0C0C0D"/>
<path d="M255.379 6.06979C255.501 6.93011 255.647 7.78708 255.812 8.6404C256.42 11.6293 257.906 14.3153 260.541 15.9327C271.897 22.8981 285.891 13.7299 296.391 8.95579C298.16 8.15179 300.357 7.10942 302.202 6.55505C302.789 6.37848 302.71 6.5173 303.334 6.93072L304.028 7.26832C306.907 5.51388 309.579 5.63779 312.723 4.48643C317.432 6.95262 318.491 3.40937 324.143 4.12113L324.42 3.06079C323.339 2.52803 323.29 2.51798 322.676 1.52371L322.195 1.17606C320.49 1.18702 315.724 0.167788 314.994 0.420465C308.873 2.53961 302.673 4.63865 296.842 7.49239C286.241 12.0518 270.265 22.6871 259.315 14.304C257.826 13.1664 256.74 9.8496 256.816 7.94112C256.959 4.2639 260.958 2.22086 263.95 0.80526L265.502 3.24249e-05C260.986 0.055439 257.534 2.14324 255.379 6.06979ZM315.639 3.81638C316.762 3.38774 316.665 3.20569 317.584 3.4605C316.862 4.47243 316.26 4.39846 314.905 4.71903C314.364 3.58472 314.111 3.30312 314.193 2.10518L314.501 1.72526C315.374 2.3055 315.192 2.58892 315.639 3.81638Z" fill="#0C0C0D"/>
<path d="M314.906 4.71899C316.26 4.39843 316.863 4.4724 317.584 3.46047C316.665 3.20566 316.762 3.38771 315.639 3.81635C315.192 2.58888 315.374 2.30547 314.501 1.72523L314.193 2.10515C314.111 3.30309 314.364 3.58468 314.906 4.71899Z" fill="#0C0C0D"/>
<path d="M453.275 33.8892C453.509 34.074 454.2 35.2007 455.156 35.9463L455.707 35.8668C456.258 35.0263 456.288 34.8284 456.601 33.8549C457.338 33.6049 457.886 33.7115 458.638 33.7891L458.972 33.5784C457.995 31.1926 454.124 32.2919 452.1 29.6988C449.546 26.424 448.819 23.6823 448.046 19.6525C449.577 18.1891 450.578 17.4883 449.4 15.4968C448.837 15.231 448.296 14.9734 447.723 14.7284L447.404 14.4087L446.615 14.4656C445.864 11.348 445.273 9.19535 442.948 6.84758C436.846 0.679806 428.954 -0.341866 420.9 1.52734L421.247 2.24274C429.31 0.119034 443.219 3.96492 444.774 13.6403C444.832 13.999 443.651 14.7682 443.298 15.0517C442.647 17.1239 443.581 18.036 443.137 19.8273C443.045 20.1999 440.577 22.6031 440.133 23.0713L440.355 23.2878C442.184 22.7218 444.747 20.3412 445.87 18.7365C448.402 26.1506 448.25 27.9321 453.591 33.3839L453.275 33.8892Z" fill="#0C0C0D"/>
<path d="M303.334 6.9307C298.732 9.61548 294.721 12.7061 293.147 18.1931C290.523 27.3492 296.842 35.8513 305.486 38.4883C309.345 39.6658 314.832 38.8545 318.32 36.9123C325.314 32.8356 326.069 22.2159 316.732 20.431C313.484 19.8109 308.124 20.88 307.601 24.7865C307.391 26.3543 310.62 30.2614 311.844 31.1847C310.937 28.8601 308.289 26.4931 309.464 24.2181C312.212 18.9006 321.26 20.6024 322.645 26.1692C323.908 32.4974 317.94 37.0066 312.461 37.7957C307.905 38.4713 303.27 37.2453 299.642 34.4047C293.168 29.3995 291.808 20.5662 296.574 13.6793C298.309 11.1726 301.806 9.3847 304.028 7.2683L303.334 6.9307Z" fill="#0C0C0D"/>
<path d="M498.728 32.9361C499.014 34.7228 498.712 34.3176 499.656 35.4727C501.464 33.8376 501.311 29.4257 501.305 27.0691L500.745 25.9574C499.382 24.8855 499.056 22.8914 498.563 21.2308C497.598 17.9606 496.475 15.7239 494.518 12.9566L494.515 12.4826C495.224 12.6738 495.179 12.6492 495.666 13.2035L496.055 12.6385C490.163 4.17168 476.196 -1.22253 466.104 0.764793C467.607 1.04335 468.663 1.05492 470.377 1.42724C472.699 2.07507 475.785 2.43673 478.299 3.14635C484.176 4.8052 489.533 8.02729 493.264 12.8802C497.684 18.5703 499.65 25.7899 498.728 32.9361Z" fill="#0C0C0D"/>
<path d="M405.467 23.4573L406.106 22.2654C406.136 18.7867 408.821 19.1392 408.398 16.9817C407.631 13.0631 407.746 12.4792 410.756 9.00289L409.828 8.56086C407.585 11.2042 407.019 12.7553 405.601 15.9783C405.5 14.4239 405.409 13.012 405.095 11.4822C403.242 2.39066 392.096 -2.50155 384.223 2.59706L384.981 3.26499C390.377 0.668192 397.937 2.16599 401.909 6.87066C403.787 9.09605 403.86 11.7391 403.549 14.4997C400.594 16.5102 401.525 16.9348 401.662 20.0583C401.157 21.2501 400.414 21.8709 399.517 22.814L400.192 23.0816C401.41 21.9022 402.782 19.0567 404.322 19.342C405.117 20.4693 405.223 22.0401 405.467 23.4573Z" fill="#0C0C0D"/>
<path d="M352.082 30.0512C351.045 30.2068 351.282 30.029 350.546 30.6059C350.074 31.5703 350.348 33.2712 350.597 34.4935C351.833 40.5215 340.417 42.95 337.753 38.8292C335.206 34.8935 341.101 33.0413 344.212 34.6146C344.617 34.8195 345.39 34.9182 345.88 34.948L345.977 34.5358C344.06 32.1536 333.912 32.5844 336.019 38.2599C338.082 43.8185 346.692 42.5658 350.11 39.1558C351.267 38.0024 352.484 35.299 353.227 33.796C354.32 37.3466 354.94 37.5104 358.066 39.4018C356.83 37.799 355.601 36.6814 355.771 34.7203C356.316 33.9525 356.499 33.6615 356.943 32.8325C356.974 31.5919 356.779 31.3703 356.246 30.1955L355.458 29.6046C354.429 30.1709 354.362 30.4595 353.473 30.3039C353.166 29.7221 353.014 29.4588 352.786 28.8323L352.082 30.0512Z" fill="#0C0C0D"/>
<path d="M178.66 25.5854C181.385 20.7248 187.769 19.0136 191.53 23.7643C194.06 26.9623 189.7 28.8327 189.422 31.0874L189.79 31.1096C192.329 28.16 196.817 23.5101 190.144 20.9851C187.883 20.13 185.873 19.8359 183.471 20.6213C179.222 22.0107 176.258 26.6832 177.896 31.1065C181.064 38.5508 190.917 40.6815 197.85 37.7629C202.096 35.975 206.071 32.1705 207.765 28.0479L207.076 26.8877C206.217 29.41 205.115 31.2125 203.206 33.0719C199.943 36.2493 195.55 37.9958 190.997 37.9258C183.046 37.7596 178.413 33.7265 178.66 25.5854Z" fill="#0C0C0D"/>
<path d="M4.93183 14.3823C5.45349 13.6127 5.84915 12.6882 6.83892 12.6233L7.52099 13.3954C13.1388 5.98399 21.3263 2.79385 30.2878 1.54903C30.663 1.49576 31.0395 1.44889 31.4166 1.40901C32.7521 0.708207 33.9209 1.58465 35.226 0.795259C23.5003 -0.7409 11.0963 4.06912 4.32129 13.9226L4.93183 14.3823Z" fill="#0C0C0D"/>
<path d="M405.467 23.4574C405.57 29.268 408.955 34.1417 412.869 38.0405C420.879 46.0212 429.173 49.825 440.605 49.4156C441.131 49.3967 441.125 49.4189 441.664 49.2625L441.423 48.9504C439.381 48.7608 436.055 48.6359 434.238 48.2907C425.831 46.6946 416.944 41.8142 411.481 35.1594C407.963 30.8736 406.852 27.5565 406.106 22.2655L405.467 23.4574Z" fill="#0C0C0D"/>
<path d="M456.863 38.4381C456.139 45.1952 453.385 46.8048 447.203 48.5126L447.054 48.7921C447.246 48.8709 447.453 48.9781 447.663 48.9422C452.898 48.0499 457.152 44.9438 457.536 39.2692C457.542 39.2034 458.394 39.3636 458.653 39.1243C458.839 37.719 457.652 37.2606 457.594 35.701L457.977 35.5122L459.417 36.1667L459.858 35.995L459.636 35.2093C458.875 34.3237 457.783 34.1876 456.602 33.8549C456.288 34.8285 456.258 35.0264 455.707 35.8669L455.156 35.9463C454.2 35.2008 453.509 34.0741 453.275 33.8893C446.579 33.3995 444.424 38.7045 450.207 42.9979L450.508 42.8743C449.964 41.3509 449.282 40.7697 448.18 39.5879C448.424 37.8235 448.396 36.5342 449.769 35.3862C451.972 35.0869 453.098 37.2563 456.863 38.4381Z" fill="#0C0C0D"/>
<path d="M9.01467 49.0858L9.83796 48.4304C4.17236 41.3131 1.80081 35.103 2.56201 25.9576C1.57163 25.8434 0.966574 25.9759 0.0121121 25.5987C-0.0938039 27.9525 0.503648 35.9323 1.46237 37.8611L1.32601 35.3414L1.55337 35.205C2.88098 36.9055 2.72332 37.262 2.61375 39.4006C4.09749 41.9128 7.03149 47.1795 9.01467 49.0858Z" fill="#0C0C0D"/>
<path d="M352.082 30.0513L352.786 28.8323C353.187 25.6857 350.125 19.6443 348.086 17.1726C341.412 9.07874 334.427 5.25081 324.42 3.06074L324.143 4.12108C335.62 5.68798 352.606 17.2423 352.082 30.0513Z" fill="#0C0C0D"/>
<path d="M322.676 1.52369C326.261 1.97364 330.324 2.3755 333.745 3.34176C346.26 6.87712 356.134 15.8529 367.891 22.1312L368.271 21.6265C353.693 13.2805 339.851 0.411003 322.195 1.17604L322.676 1.52369Z" fill="#0C0C0D"/>
<path d="M244.447 12.0491C245.385 9.46445 246.38 7.29447 245.086 4.64044C243.12 0.604604 236.573 -0.870376 232.822 1.22959C229.836 2.90122 228.379 5.34002 230.756 8.21446L231.991 7.04332C228.14 -2.40134 248.212 0.443254 243.973 11.2405L244.447 12.0491Z" fill="#0C0C0D"/>
<path d="M2.5621 25.9576C4.06867 18.7846 4.15298 19.2629 7.52068 13.3953L6.83861 12.6233C5.75176 14.785 4.33589 16.7215 3.2816 18.9247C2.6805 20.1807 2.5831 22.0271 1.99143 22.9733L1.73882 22.7809C1.55499 19.9908 3.52874 16.6536 4.93152 14.3823L4.32098 13.9226C1.69225 17.699 0.735358 21.1428 0.012207 25.5987C0.966669 25.9759 1.57173 25.8435 2.5621 25.9576Z" fill="#0C0C0D"/>
<path d="M263.95 0.805269L264.321 0.831765C267.38 1.06679 270.077 3.28791 269.715 6.52158C267.718 9.7525 264.154 6.36144 261.813 6.78277C264.13 8.23552 267.094 9.85509 269.821 8.74422C269.498 8.14236 269.578 8.30553 269.069 7.80627L269.282 7.4038C269.912 7.78891 269.696 7.62634 270.165 8.23551C271.477 7.77551 272.265 5.76048 271.687 4.48644C270.944 2.8623 269.158 1.39313 267.544 0.740124C266.872 0.474051 266.19 0.227149 265.502 4.3869e-05L263.95 0.805269Z" fill="#0C0C0D"/>
<path d="M446.616 14.4657L447.404 14.4087L447.724 14.7284C454.018 4.56619 458.714 2.46076 470.377 1.42721C468.663 1.0549 467.607 1.04332 466.104 0.764766C465.696 0.806168 465.288 0.867973 464.883 0.949256C455.917 2.81176 451.333 7.10971 446.616 14.4657Z" fill="#0C0C0D"/>
<path d="M382.025 4.88886C381.779 11.9069 383.112 13.6093 390.079 14.0985C392.79 12.5337 393.956 11.7641 396.135 9.51469C393.719 10.5805 392.106 11.7057 389.935 13.1709C386.834 13.019 383.456 12.4406 382.853 8.40048C382.518 6.15774 383.565 4.86117 384.981 3.26504L384.223 2.59711C383.395 3.27994 382.74 4.08364 382.025 4.88886Z" fill="#0C0C0D"/>
<path d="M500.746 25.9573L501.306 27.0691C501.54 22.3699 498.956 16.2724 496.056 12.6384L495.666 13.2035C498.929 18.6348 499.279 19.9055 500.746 25.9573Z" fill="#0C0C0D"/>
<path d="M500.746 25.9574C499.279 19.9056 498.929 18.6349 495.666 13.2036C495.179 12.6492 495.225 12.6739 494.516 12.4827L494.519 12.9567C496.476 15.724 497.599 17.9606 498.564 21.2308C499.057 22.8915 499.382 24.8855 500.746 25.9574Z" fill="#0C0C0D"/>
<path d="M409.828 8.56091L410.756 9.00293C413.873 5.89591 416.947 3.57067 421.248 2.24274L420.901 1.52734C416.256 3.13625 413.28 5.17259 409.828 8.56091Z" fill="#0C0C0D"/>
<path d="M4.93123 14.3824C3.52845 16.6537 1.5547 19.9909 1.73853 22.781L1.99115 22.9734C2.58282 22.0272 2.68021 20.1808 3.28131 18.9248C4.3356 16.7216 5.75147 14.7851 6.83833 12.6234C5.84856 12.6882 5.4529 13.6128 4.93123 14.3824Z" fill="#0C0C0D"/>
<path d="M367.608 37.3827L368.068 36.6651C368.117 32.7736 364.172 32.8056 361.065 32.344L360.824 32.6923C361.917 34.2132 366.412 32.3757 367.608 37.3827Z" fill="#0C0C0D"/>
<path d="M236.499 17.7344C240.563 16.0704 242.012 15.8545 244.447 12.0491L243.972 11.2406L243.695 11.6862C241.245 15.5836 239.027 16.373 234.6 17.3867L236.499 17.7344Z" fill="#0C0C0D"/>
<path d="M230.756 8.21444L233.823 9.29944C236.187 8.58981 236.86 8.30912 239.022 7.11788C235.931 7.1051 234.215 9.1043 231.99 7.0433L230.756 8.21444Z" fill="#0C0C0D"/>
<path d="M133.288 37.6194C133.929 36.9856 134.189 35.5593 134.449 34.6232C135.907 34.0801 138.22 33.4657 139.758 33.1382L140.234 33.0395L140.5 32.4371C137.186 32.7126 132.314 32.8928 133.288 37.6194Z" fill="#0C0C0D"/>
<path d="M167.649 6.00586L169.582 5.20004C169.679 4.57565 169.677 4.6204 169.489 4.01489C168.169 3.68702 165.96 4.36376 165.23 5.53338L165.792 5.79671C166.683 5.6104 166.838 5.70326 167.649 6.00586Z" fill="#0C0C0D"/>
<path d="M360.194 41.1308C361.32 41.227 361.67 41.1981 362.799 41.0699L362.881 40.7966L361.804 40.3752C360.668 40.2212 360.254 40.212 359.11 40.2547L359.04 40.588L360.194 41.1308Z" fill="#0C0C0D"/>
</svg>
