<svg width="198" height="61" viewBox="0 0 198 61" fill="none" xmlns="http://www.w3.org/2000/svg">
<path d="M85.0186 0.0250692C85.2604 -0.0332479 84.9526 0.0301547 85.3377 0.0177739C89.8871 -0.129292 94.8794 2.1533 97.9013 5.50734C98.3984 6.05892 98.6436 7.24921 99.1274 7.47102L99.2891 7.36735C99.2853 5.00099 103.036 2.96487 104.862 1.98054C105.504 1.64984 106.201 1.11319 106.889 0.893575C111.165 -0.472017 116.14 0.0558419 120.44 1.14443C121.561 1.42838 125.226 3.28978 126.178 4.01504C126.796 4.48563 129.163 6.99142 129.464 7.66484C130.623 10.2597 131.552 13.5384 131.881 16.3698C132.177 20.7581 130.247 25.6481 127.861 29.2469C127.22 30.2142 126.908 31.1642 126.108 32.0447L126.137 32.1986C126.663 32.2195 130.041 28.5665 130.759 27.9591C138.304 21.5966 146.654 16.3595 157.007 17.6816C160.748 18.1591 167.699 21.2318 171.061 17.9092C171.537 17.4391 172.037 16.1289 172.318 15.4528C172.038 15.0411 171.975 14.9125 171.605 14.5957L171.422 14.619C170.785 16.7843 169.999 16.8036 167.957 16.762C166.679 15.9372 166.304 15.3533 165.369 14.1548C166.163 11.8058 167.066 9.7145 170.011 9.59034C171.384 9.56454 173.209 9.92752 174.17 10.983C176.921 14.0003 176.194 18.408 173.282 21.0103C171.421 22.674 170.284 23.0656 167.871 22.9875C168.62 23.8348 169.49 24.5968 170.23 25.4078C171.253 26.5289 172.068 27.7739 173.214 28.7841C175.805 31.0682 177.423 33.3268 181.018 33.9134C181.902 34.0939 182.875 34.323 183.786 34.2524C188.685 33.8752 194.221 30.8738 193.904 25.2557C193.816 23.6978 193.45 22.4931 192.246 21.4528C189.399 18.9917 184.383 18.977 184.247 23.6872C184.23 24.2861 185.241 24.9496 185.704 25.278C186.647 23.47 187.886 23.6892 189.518 24.5533L190.073 25.4255C189.566 27.3794 189.898 27.6744 188.09 28.7493C186.368 28.8303 185.807 28.5654 184.158 28.3444C182.328 26.7742 181.079 26.0233 180.877 23.2363C180.555 18.7853 184.317 16.7594 188.221 16.4955C190.481 16.3427 193.245 17.8964 194.909 19.3797C196.419 20.8735 197.946 24.3336 197.999 26.4884C198.078 32.2137 191.959 38.0928 186.251 37.8383C185.528 37.8394 184.729 37.8498 184.012 37.8371C181.38 37.792 175.897 36.2831 174.088 34.5001C173.488 36.4405 173.28 37.3072 172.906 39.3124C172.418 39.7602 172.288 40.098 171.908 40.569C167.779 45.6995 158.654 45.4368 154.986 39.818C154.105 41.5733 152.788 42.7964 151.134 43.8343C148.477 45.5016 144.188 44.6292 142.642 41.836C141.852 40.4058 141.545 37.2933 143.348 36.444C143.788 36.238 144.154 35.9962 144.564 35.7347C146.062 35.6467 146.175 35.7162 147.598 36.2554C148.544 37.2828 148.681 37.4715 149.433 38.6378C148.869 39.9997 148.46 40.1073 147.15 40.6939L148.559 41.2621C149.896 40.8559 150.389 40.3966 151.304 39.4258C151.394 38.4735 151.491 37.7468 151.53 36.776C150.066 33.8637 147.321 31.2776 144.169 30.4757C139.822 29.3684 136.138 30.1286 132.27 32.1789C130.763 32.9773 129.471 33.8822 128.012 34.728C127.932 34.8912 127.85 35.0485 127.765 35.2082C127.23 36.216 120.298 42.212 119.319 42.6737C119.304 42.7015 119.287 42.7281 119.272 42.7547C119.135 43.0012 118.989 43.2384 118.806 43.4548C117.886 44.5517 116.727 45.4345 115.692 46.4169C114.459 47.589 113.306 48.8444 112.058 50.0027C111.342 50.6669 110.555 51.2338 109.817 51.8691C108.212 53.2483 100.966 60.0022 99.5339 60.008C99.3571 60.008 99.3883 59.9802 99.26 59.8414L99.2706 59.6169C99.8174 58.579 109.061 50.712 110.171 50.322C111.147 48.6304 114.96 45.394 116.55 43.8829C120.057 40.547 123.823 37.0919 127.585 34.0314C128.418 33.3939 129.106 32.6337 129.971 32.0285C136.524 27.4338 146.521 27.0785 151.458 34.1634C153.049 36.4463 152.976 37.4194 152.506 40.12C150.972 42.1877 148.061 43.2152 145.877 41.2991C145.315 40.8062 144.567 39.3517 145.22 38.7246C145.595 38.3636 145.892 38.0835 146.434 38.1044C146.847 38.5013 146.56 38.7616 146.913 39.2985C147.436 39.3841 147.565 39.4119 147.771 38.9537C147.567 37.0514 145.993 37.0827 144.543 37.1024L143.563 37.7538L143.52 37.9007L143.472 38.0616C143.136 39.192 143.247 40.3156 143.808 41.357C144.638 42.8982 146.17 43.015 147.635 43.5438C150.147 42.9456 151.226 42.4712 153.089 40.5829C154.11 39.5484 153.95 38.9502 154.625 38.1345C155.864 38.0859 156.706 40.4313 157.71 41.1035C159.854 42.5395 161.21 42.58 163.562 42.6911C167.206 42.8623 167.126 42.4677 170.116 40.8814C170.471 40.0899 171.698 38.5383 172.334 37.954C172.494 36.8408 172.565 36.3826 172.531 35.2684C172.497 34.2247 172.314 32.9125 172.416 31.9209L172.623 31.8457C173.843 32.1547 174.421 33.6496 175.708 34.1703C176.24 34.3867 177.253 35.03 177.836 35.1978C181.048 36.0934 185.532 37.2782 188.832 36.2889C191.105 35.6062 194.867 32.6013 195.822 30.3322C197.124 27.2301 196.382 24.765 195.391 21.7865C194.069 20.7804 193.365 18.9377 191.433 18.1316C191.28 18.157 190.813 18.3126 190.873 18.3364C190.005 17.99 188.41 17.7675 187.611 17.8991C185.887 18.1827 184.306 18.4019 183.227 19.8801C181.946 21.6327 182.123 22.7434 182.399 24.7075C182.874 25.1714 182.913 25.4205 183.249 25.8312C183.986 26.7326 185.173 27.4904 186.357 27.5576C186.896 27.568 187.791 27.7207 188.208 27.303C188.761 26.7476 189.041 25.8555 188.463 25.2312C187.963 25.0593 186.811 24.9692 186.454 25.3807C186.464 25.8057 186.476 25.8659 186.395 26.2963C186.192 26.4907 186.137 26.5868 185.768 26.5856C185.004 26.5833 184.296 25.9527 183.833 25.4298C182.734 24.1851 182.862 23.6119 182.963 22.1072C183.391 21.6887 183.57 21.3525 183.9 20.8578C184.725 19.6185 185.377 19.2102 186.626 18.4761C188.627 18.4331 189.126 18.5399 190.994 19.2414C195.245 20.8373 196.157 25.69 194.472 29.5003C193.646 31.3667 190.146 34.0095 188.179 34.6378C184.142 35.8654 181.482 36.0621 177.702 33.9435C175.497 32.7077 175.326 32.3895 173.529 30.7268C171.627 28.968 170.19 27.5691 168.701 25.4088C168.262 24.7742 167.256 24.288 166.672 23.7724C166.317 23.3967 163.589 21.5755 163.513 21.4407L163.688 21.3091C165.129 21.0506 165.832 21.4311 167.083 22.0121C168.097 21.763 169.123 21.8765 170.095 21.5232C173.526 20.2772 175.982 15.3629 173.499 12.23C172.851 11.4171 171.908 10.8946 170.875 10.7769C169.288 10.6053 168.406 11.3418 167.297 12.2733C167.06 13.1455 166.818 13.5198 167.266 14.4649C167.885 15.7677 170.046 16.2287 170.341 14.4294C170.383 14.1777 170.338 14.0441 170.16 13.8559C169.498 13.8466 169.096 14.3077 168.695 14.7678C168.383 14.3029 168.15 13.8537 167.884 13.3629C170.3 11.7215 171.606 12.0858 173.231 14.456C173.255 15.2293 173.292 15.9533 173.203 16.7101C173.062 17.9087 171.923 19.1315 170.92 19.7741C167.183 22.168 162.141 19.837 158.224 19.1226C157.177 18.9316 155.904 19.001 154.872 18.9168C149.535 18.5219 143.676 20.3091 139.258 23.2877C137.636 24.3811 136.019 25.6437 134.369 26.7418C132.89 27.7265 131.303 29.3823 129.963 30.5625C128.295 32.032 126.766 33.6045 124.878 34.8275C124.208 35.2857 124.202 36.5169 122.988 36.1859C122.515 35.6606 123.306 34.9953 123.539 34.3763C124.532 31.73 126.251 29.5396 127.667 27.119C129.758 23.548 131.049 19.3404 130.445 15.1742C130.223 13.6403 129.511 11.9028 129.177 10.3713C128.825 8.61133 127.866 7.73565 126.804 6.48704C125.29 4.70872 124.27 4.35337 122.31 3.38385C119.699 2.09173 117.709 1.43521 114.746 1.53136C113.907 1.55855 113.468 1.36925 112.525 1.53206C111.505 1.54698 110.473 1.44215 109.42 1.65644C106.599 2.2307 103.195 4.02499 101.253 6.14998C100.478 6.9972 99.7088 8.7378 99.0079 9.73521L98.7866 9.73752C98.4939 9.45994 98.5986 9.19809 98.4969 8.82829C98.3563 8.31697 97.8979 7.91257 97.6218 7.49128C96.6057 5.94078 95.4402 4.65792 93.7627 3.8048C92.8884 3.34451 91.4233 2.47195 90.4741 2.16532C87.3785 1.16525 81.8604 1.2893 78.7414 2.09324C77.839 2.32581 73.9095 4.1488 73.0925 4.70605C72.2277 5.29593 69.9504 7.64505 69.4246 8.66745C68.9021 9.68279 68.7317 11.2085 68.3385 12.3826C68.0286 13.3084 67.5829 14.5552 67.4347 15.5356C67.2083 17.0329 67.416 18.3357 67.6336 19.7858C68.2286 23.7497 70.0566 26.8506 72.2085 30.1691C73.2558 31.7844 74.3181 33.6565 74.9931 35.5044C75.115 35.8377 75.0375 35.9788 74.8886 36.2102C74.4221 36.2484 74.4314 36.1535 73.9341 35.914C73.1257 34.5926 71.8247 33.999 70.5968 32.9345C68.9034 31.4673 67.2813 29.8266 65.6404 28.3837C63.7934 26.7603 61.0672 24.8782 59.0353 23.4832C54.4905 20.3629 48.3922 18.4707 42.8837 18.9035C41.9385 18.9777 40.7491 18.9239 39.8094 19.1104C37.8166 19.5061 35.4595 20.183 33.507 20.6069C31.445 20.9033 28.9097 21.1048 27.14 19.7933C26.3824 19.2318 26.0656 18.7246 25.2922 18.2161C24.5145 16.5824 24.2366 14.7257 25.5987 13.291C26.1465 12.7053 26.9175 12.3804 27.7194 12.3973C28.593 12.4149 29.3538 12.7284 29.9456 13.3681C30.0073 13.8529 30.035 13.6168 29.8075 14.0937C28.9312 14.73 28.5219 13.8959 27.7356 14.1112C27.611 14.6115 28.1379 15.4984 28.6218 15.6352C29.3121 15.8303 30.3449 14.9191 30.9108 14.5439C30.9484 13.9568 30.9412 13.2621 30.9504 12.6658C30.4425 12.1536 29.7435 11.5514 29.1986 11.0558C24.0665 9.82153 22.3844 14.2985 24.2768 18.3059C25.158 20.1718 26.1994 20.3869 27.7501 21.5893C28.3578 21.6678 30.5777 22.0019 31.0115 21.8701C32.9532 21.2799 32.7613 21.1345 34.8886 21.3048C33.2608 22.4193 31.1485 23.6255 29.7032 25.0385C28.7338 25.9585 27.8265 27.5518 26.8766 28.4335C25.5944 29.6241 24.0415 31.2903 22.7447 32.3814C21.076 33.7861 17.5708 35.5171 15.3866 35.5426C11.3738 35.59 7.89795 34.3473 5.0683 31.4812C2.30171 28.931 1.99069 23.6776 4.52112 20.8516C5.69787 19.5373 8.56791 18.4067 10.3286 18.4626C11.5762 18.5023 12.7775 19.1327 13.6146 20.0908C14.7817 21.4635 15.2062 22.2432 15.1518 23.9746C14.5083 24.9602 13.4765 26.8702 12.0707 26.5439C11.2976 26.3646 11.9598 25.0717 10.8832 25.0088C9.06904 24.903 8.50427 26.3843 10.0271 27.4129C10.5642 27.6443 11.886 27.5518 12.3968 27.4187C14.0482 26.9917 15.5583 25.2503 15.7967 23.6147C16.4698 18.9957 11.0661 16.8712 7.39705 18.296C7.01267 18.4453 6.97634 18.34 6.64414 18.1592C5.00374 18.1826 1.70894 22.9662 1.60029 24.7992C1.4678 27.0334 1.25825 29.0571 2.61471 31.1029C4.23925 33.5547 7.06427 35.722 9.93512 36.466C13.4793 36.9936 19.0548 35.98 22.1925 34.2328C22.702 33.9481 24.9451 32.0748 25.7033 31.5379C25.7841 33.2076 24.9933 36.5689 25.7999 37.9875C28.7892 42.7084 31.1411 42.8588 36.029 42.6807C40.4757 42.5175 42.0138 38.2398 43.3505 38.1079C43.8266 38.5626 43.6416 39.2036 44.3788 39.9742C46.5755 42.2687 47.336 42.7767 50.2985 43.56C52.2829 42.8531 53.8532 42.7455 54.5184 40.3595C54.7875 39.3934 54.7514 38.9537 54.6938 37.9667C54.2938 37.6994 53.8899 37.409 53.4944 37.1324C52.7754 37.0966 52.0628 37.1185 51.343 37.129C50.9213 37.6265 49.8574 38.6459 50.2942 39.2835C51.5359 39.604 51.0831 38.6771 51.4332 38.1217C52.0885 38.0118 52.5013 38.5013 52.9651 38.9028C52.9067 40.1212 52.7255 40.974 51.5713 41.6867C49.4042 43.0243 46.7622 42.0628 45.4454 39.9997C45.4334 39.177 45.1342 37.5987 45.1476 37.3257C45.2345 35.5576 47.3433 32.8848 48.5849 31.6733C48.923 31.369 49.5272 31.2244 49.8758 30.9767C55.2527 27.1641 62.4295 28.5214 67.7317 31.7555C68.5591 32.2599 69.3114 33.2273 70.0592 33.8139C75.5566 38.1217 80.5778 43.1157 85.7221 47.8482C86.5788 48.6466 87.3547 49.5919 88.2057 50.3868C89.6259 51.714 98.8521 58.6554 98.6272 59.9166L98.4143 60.0184C95.7564 59.5 83.2935 47.25 80.5149 44.8085C79.3488 43.7834 78.1777 42.1982 76.4579 41.0468C75.1719 39.6017 72.9607 38.1912 71.7207 36.8594C69.7729 34.7674 68.9018 33.94 66.3251 32.4914C62.3331 30.2466 58.1933 29.2619 53.71 30.5116C49.9389 31.5634 48.2107 33.8799 46.3742 37.0422C46.6098 38.1472 46.6137 38.3983 46.6275 39.516C47.5922 40.4417 48.0598 40.6731 49.2724 41.2621C49.7693 41.1244 50.3149 41.048 50.5692 40.6303C50.0764 40.3491 48.9043 39.6988 48.7846 39.1319C48.4731 37.6554 50.2868 36.2785 51.4453 35.8793C53.0688 35.3204 53.8913 36.032 55.2439 36.6823C55.2976 36.7575 55.4304 36.9346 55.4604 37.0017C57.6208 41.895 52.8405 45.7354 48.2084 44.4244C45.9715 43.7914 44.1068 41.7827 42.9699 39.8412C39.2209 46.057 27.7362 45.5815 24.9946 38.6783C24.6245 37.7468 24.2606 35.5542 24.2118 34.5487C22.1619 35.811 17.8181 37.5525 15.3937 37.792C10.7965 38.2455 7.64293 37.7978 4.11313 34.7326C-0.824036 30.4445 -1.37145 24.797 2.76871 19.7438C4.08386 18.1387 7.46775 16.4115 9.55166 16.4919C13.3493 16.7779 17.0142 18.3852 17.1205 22.6627C17.1705 24.3162 16.5482 25.9191 15.3959 27.1063C14.3114 28.2078 12.6444 28.8373 11.1055 28.828C9.77116 28.8199 9.13546 28.3675 8.2585 27.4939C8.18503 26.905 8.05381 26.139 8.0861 25.5647C8.15784 24.2866 9.25116 23.775 10.4037 23.9674C11.5186 24.1533 11.7352 24.3995 12.3737 25.2535C14.4008 23.7167 13.835 22.8471 12.8193 20.8549C9.84024 18.9524 7.18415 19.8362 4.89752 22.3606C4.10746 23.2328 4.01559 26.4086 4.27952 27.5645C5.33038 32.1292 11.4755 34.5868 15.7136 34.1807C16.7134 34.0847 19.2577 33.4367 20.0409 32.8628C21.8568 31.3968 24.3067 29.5362 25.799 27.7508C27.2673 25.9932 28.4338 24.7649 30.0498 23.1108C29.1873 23.0192 28.3536 23.0244 27.5469 22.7378C23.7846 21.4014 21.0702 17.1785 22.4939 13.2173C23.6315 10.0519 26.6494 8.85409 29.7192 10.0238C31.4683 10.6903 32.0114 12.4071 32.5987 13.9741C31.6918 15.5147 31.5797 15.7751 30.1022 16.7408C25.7467 16.9301 27.605 15.231 26.4645 14.458C25.6388 14.9194 25.9672 16.3004 26.3083 16.9573C28.822 21.7971 37.4159 18.0921 41.1637 17.6664C49.3937 16.7318 57.2598 19.9056 63.4978 25.0933C64.7998 26.1737 66.2339 27.0334 67.481 28.1893C68.0701 28.7355 71.3605 32.1107 71.7459 32.2461L71.7976 32.1153C71.0079 31.2244 70.8308 30.22 70.2446 29.233C69.955 28.7459 69.5131 28.3687 69.2171 27.8723C67.5165 25.0184 66.4129 21.5652 66.1454 18.2633C65.8972 15.2002 67.3704 8.81347 69.3792 6.49074C71.1724 4.41724 72.5147 3.43928 74.9422 2.29191C78.6641 0.532914 80.9574 0.338871 85.0186 0.0250692Z" fill="black" fill-opacity="0.988235"/>
<path d="M112.332 2.54608C115.333 2.55522 118.291 2.79439 121.059 4.17155C122.865 5.07049 125.978 7.87954 127.005 9.56738C127.52 10.5352 127.893 11.6579 128.279 12.6789C131.112 20.1789 125.555 28.6812 120.932 34.2294C119.945 35.4142 118.865 38.2063 117.363 38.7212C116.801 38.6286 116.936 38.1033 116.741 37.4785C116.357 36.2554 116.055 34.6216 115.415 33.4969C114.899 32.5886 113.978 31.7058 113.47 30.7547C112.284 28.7934 110.499 27.1665 109.006 25.3593C107.905 24.1496 106.944 22.749 105.796 21.5901C104.132 19.9114 102.106 18.2763 100.587 16.4792C99.9482 16.0192 99.5307 15.6353 99.6468 14.7655C99.9864 14.5702 100.587 14.503 100.825 14.8209C104.117 19.2163 109.494 21.083 114.768 19.3481C118.08 18.2589 119.143 13.2679 116.292 10.997C114.296 9.40783 112.834 10.2211 110.841 11.284C110.567 11.896 110.291 12.2857 110.366 12.9162C110.574 13.3784 110.854 13.5223 111.269 13.8338C115.278 14.1434 111.423 11.4988 115.216 11.6616C115.587 11.9024 116.108 12.2065 116.308 12.5852C117.206 14.2908 116.134 16.2603 114.56 16.987C112.449 17.9607 109.085 18.0939 106.941 17.4302C104.962 16.8257 103.316 15.4373 102.386 13.5879C101.641 12.0791 101.691 9.98301 102.262 8.40579C103.155 5.93576 106.572 3.59081 109.084 2.96518C110.053 2.72439 111.495 3.04085 112.332 2.54608ZM114.165 15.9023C115.115 14.805 116.244 13.8701 114.528 12.9531C113.631 13.3552 112.677 17.2159 109.495 13.9553L109.49 13.7984C109.427 12.3481 108.67 12.0871 109.857 10.7077C110.477 9.98776 111.299 9.55235 112.132 9.10583C113.069 9.21517 113.348 9.01754 114.186 8.87996C115.315 8.69448 117.276 9.86881 117.88 10.7014C121.834 16.1458 117.021 21.8715 110.93 21.0923C110.349 21.0179 110.228 21.3014 109.256 21.0556C108.675 21.0128 107.999 20.9102 107.454 21.0565L107.381 21.2215C109.015 23.6286 111.506 26.0592 113.22 28.5226C114.26 30.0164 115.904 31.3957 116.645 33.203C117.044 34.0026 117.484 35.5195 117.96 36.1837C118.503 36.0333 120.315 32.7946 120.902 32.1362C124.409 28.1963 126.848 23.3056 127.74 18.1025C128.294 14.8764 126.375 9.20337 123.33 7.62545L122.871 6.71598C121.973 6.48468 121.191 5.86182 120.366 5.39818C119.573 4.95987 118.737 4.6087 117.869 4.35079C116.784 4.02449 115.974 3.87974 114.843 3.89339C114.214 3.90091 113.142 3.96351 112.568 3.82917C107.996 4.55304 102.285 5.51748 103.148 11.8229C103.369 13.4382 104.49 14.6167 105.762 15.5108C107.769 16.9101 111.518 16.5343 113.794 15.9941C113.917 15.965 114.041 15.9344 114.165 15.9023Z" fill="black" fill-opacity="0.988235"/>
<path d="M83.1242 2.55382C83.4103 2.55509 84.1496 2.50557 84.3702 2.55243C85.7903 2.85396 87.4794 2.73177 88.8581 2.97916C91.1393 3.38842 93.1556 5.03946 94.7242 6.64087C95.7734 7.70411 96.3584 9.99827 96.1674 11.4887C95.558 15.9444 91.4369 18.3477 87.1634 17.776C85.2625 17.5216 83.3864 17.5994 82.0745 15.9485C81.195 14.8417 81.2447 14.3007 81.3475 13.0112C81.8304 12.4259 82.0997 12.1862 82.6602 11.6808C85.2838 11.4079 83.9442 12.128 84.8857 13.6056C85.116 13.967 86.1859 13.8841 86.6525 13.8774C87.8403 12.8611 87.7692 12.7439 87.2102 11.347C85.6493 10.4101 85.3806 10.4171 83.6121 9.99052C81.103 11.0734 79.6567 12.5445 79.9789 15.5965C80.139 16.702 81.522 18.4711 82.5455 18.9816C86.4574 20.8897 91.6292 20.023 94.896 17.1804C95.7656 16.4237 96.9575 14.6766 97.9921 14.4859C98.8907 15.7485 97.0598 16.8875 96.146 17.7806L92.2884 21.5314C90.6475 23.1562 89.1453 25.2815 87.5697 26.9872C85.5475 29.1775 83.6759 31.6352 82.2311 34.249C81.6318 35.3344 81.523 37.8325 80.9704 38.757C80.5977 38.8508 80.3409 38.6784 79.9715 38.521C79.6975 38.1287 79.2206 37.6567 79.0073 37.2632C77.4474 34.3856 75.1803 32.017 73.3155 29.387C71.3918 26.6736 69.9655 22.7879 69.1723 19.5664C68.514 16.8932 69.1 13.9683 70.1924 11.5263C71.302 8.64135 72.0179 8.01618 74.3526 6.00899C77.2295 3.53549 79.5128 3.11385 83.1242 2.55382ZM87.1165 20.9982C85.5494 21.3904 83.2432 20.9253 81.7816 20.0741C77.2937 17.4605 77.8113 10.0855 83.1581 8.87242C83.3584 8.82707 86.028 9.2435 86.2883 9.3407C86.7137 9.50269 87.1093 9.73399 87.459 10.0252C88.2085 10.6483 88.6194 11.2647 88.8912 12.1775C88.5525 13.0009 88.4752 13.2257 88.365 14.1509C87.5 14.8023 87.3078 14.9869 86.2592 15.3185C85.2177 14.8701 84.9106 14.551 84.0031 14.0315L83.7371 12.984C83.5267 12.9359 83.2221 12.8897 83.0961 13.0975C81.5082 15.7177 85.3082 16.2677 86.6415 16.3548C89.7201 16.5558 91.6848 16.5908 93.7675 14.072C95.6768 11.7121 95.2485 8.04083 92.8506 6.15559C90.7395 4.64432 87.3699 3.98282 84.8191 3.89893C84.4679 3.89141 84.2663 3.923 83.9178 3.85704C79.9066 4.19607 77.7187 4.69072 74.4541 7.53831C67.0868 13.9645 70.7688 23.8153 75.6797 30.448C77.1018 32.3688 78.9682 34.3763 79.9601 36.606C80.3064 35.7208 81.0074 33.6774 81.4901 32.9219C83.829 29.2585 86.8911 25.8347 89.6599 22.4732C90.0618 21.9851 90.4644 21.7119 90.7762 21.1557C90.2492 20.6293 87.8967 21.5464 87.1683 21.0166C87.1511 21.0105 87.1337 21.0043 87.1165 20.9982Z" fill="black"/>
<path d="M98.6543 16.5944C99.0158 16.5817 99.0063 16.5875 99.3589 16.6818C99.9935 17.2864 100.449 17.9712 101.059 18.5825C102.531 20.0566 103.994 21.4687 105.379 23.0305C105.929 23.6497 106.73 24.2257 107.322 24.8215C109.711 27.2232 111.718 28.8304 113.19 31.9754C114.384 34.5244 115.778 37.3871 114.933 40.3006C114.585 41.5016 113.092 42.8091 111.967 43.3044C109.888 44.2185 106.476 44.5321 104.325 43.8019C103.211 43.3738 102.318 42.5696 101.834 41.4577C101.29 40.208 101.451 37.4333 102.953 36.9126C103.535 36.7113 105.159 36.7078 105.746 37.0457L105.785 37.2366C105.303 38.0628 104.058 38.3671 104.299 39.309C104.944 39.9245 105.915 39.9986 106.641 39.3969C107.111 39.007 107.047 37.6381 107.055 37.0307C101.748 31.5588 100.978 38.5812 99.41 39.3819C96.9156 39.2754 98.1865 36.8814 95.7868 35.5554C93.9038 34.5152 92.2397 35.4883 91.0073 37.0064C90.5775 37.5363 91.1078 38.9213 91.2705 39.4802C92.2456 39.8389 93.1759 40.2798 93.7641 38.9931C93.6774 38.0119 92.5809 38.2849 92.1612 37.4032C92.1743 37.3685 92.1874 37.3327 92.2003 37.2979C92.4404 36.4324 94.9924 36.7298 95.3819 37.1198C97.8925 39.6387 95.7513 43.7961 92.5439 44.0923C89.7506 44.3504 87.4086 44.2393 85.1301 42.7999C84.082 42.1369 82.9095 40.7634 82.8118 39.6063C82.3671 36.1779 84.764 31.7856 86.5969 29.0491C86.8251 28.7078 88.1643 27.4604 88.5341 27.0635C90.6629 24.7769 92.9503 22.7248 95.1057 20.4391C96.4375 19.0268 97.4467 18.1757 98.6543 16.5944ZM94.9639 41.114L95.0971 40.0692C95.2306 39.0463 95.0847 37.7076 93.7783 37.814L93.699 37.9436C94.0855 38.4169 94.5949 38.7374 94.5113 39.3761C94.4148 40.1155 94.1123 40.5089 93.614 41.0029C92.0325 40.9925 91.706 41.077 90.3015 40.3827C89.9319 39.5334 89.7211 38.7397 89.4656 37.8557C90.1805 34.9942 90.8101 35.5091 92.7847 33.888C95.7859 33.785 97.6002 34.514 98.8694 37.3963L99.1002 37.3628C100.635 33.2435 106.134 32.503 108.255 36.6986C108.785 37.7457 108.14 39.5543 107.55 40.5471C106.187 40.9532 105.939 41.04 104.52 40.9567L104.398 40.8676C103.846 40.4522 103.57 40.2439 103.454 39.567C103.632 38.7674 104 38.6078 104.115 37.7689L103.969 37.7052C102.586 38.5742 102.842 39.486 102.914 40.974C104.24 42.2792 104.98 42.8554 106.959 42.8265C109.673 42.786 110.357 42.7513 112.683 41.4426C113.038 40.8444 114.105 39.2893 113.953 38.6865C113.544 37.0526 113.7 36.6083 113.125 34.8739C112.254 32.245 110.575 30.6898 109.467 28.5735C108.195 27.9475 106.55 25.7734 105.482 24.7007L100.464 19.5573C99.9886 19.0738 99.5522 18.8033 99.073 18.2358C97.4263 19.5691 96.6825 20.5806 95.2427 22.0933C93.6103 23.8082 91.7251 25.3505 90.1891 27.1839C89.6228 27.8492 88.6672 28.5481 88.098 29.2921C86.3416 31.5912 84.6336 34.5047 84.2378 37.416C84.1289 38.2155 84.232 38.1357 83.8262 38.9294C83.9699 39.3356 84.3208 39.7221 84.544 40.156C85.6066 42.2248 87.8451 42.7918 89.979 42.8103C92.1818 42.83 93.346 42.8358 94.9639 41.114Z" fill="black" fill-opacity="0.988235"/>
<path d="M44.6438 20.512C49.8191 20.3259 58.1606 23.3529 61.7099 27.1827C58.6925 26.4595 53.7856 26.7731 51.0845 28.2935C49.9851 28.9125 49.1346 29.1775 48.0831 29.9585C47.2418 30.5834 46.4869 31.7069 45.631 32.0263C45.1705 32.9253 43.9296 35.6016 42.9725 35.722C42.3314 35.4269 41.944 34.5684 41.2568 34.1044C39.9664 33.2354 39.2301 33.3824 37.8423 33.6091C36.265 34.934 36.5089 34.8195 36.6233 36.8154C37.1825 36.8247 38.307 36.9554 38.6692 36.5389L38.5799 36.2832C37.6026 34.3994 40.493 34.043 41.4228 36.9925C40.9033 39.8805 39.0845 40.7403 36.4807 41.4831C32.0177 42.7559 27.708 40.5679 26.5971 35.9476C25.8411 32.8038 28.9902 27.7878 31.1564 25.7063C33.0359 23.9009 36.7425 21.7781 39.3094 21.1941C40.8703 20.8523 42.9545 20.89 44.6438 20.512ZM27.6751 36.0089C28.3442 36.7344 28.6429 37.4807 29.1696 38.2502C30.6263 40.3573 33.5523 40.9867 35.9262 40.3422C37.0265 40.0425 38.1523 39.7521 39.0221 38.9676C39.7344 38.3243 40.514 37.1521 39.6212 36.3422L39.3945 36.3769C38.9872 37.2493 39.4572 37.394 38.0031 37.917C37.7657 38.0014 37.5267 38.0801 37.2862 38.1553C36.6009 37.9494 35.7419 37.8151 35.3833 37.1221C35.3161 36.9925 35.2914 36.9173 35.2421 36.7865C35.0365 34.0928 35.6647 32.4208 38.8253 32.1142C40.5512 31.9464 41.8907 32.5909 42.9234 33.9794C45.4226 29.6646 48.6919 27.3887 53.512 26.0927C54.2247 25.9018 56.8689 25.6443 57.0969 25.4851C56.8969 25.1786 56.1893 24.9474 55.8305 24.7424C53.4935 23.4076 51.87 22.8702 49.2904 22.2579C46.6061 21.6207 44.1949 22.1446 41.722 21.9692C40.6693 22.481 39.4274 22.3275 38.3773 22.7278C33.5587 24.565 30.2531 27.6502 28.3414 32.5076C27.9117 33.6253 27.686 34.8114 27.6751 36.0089Z" fill="black"/>
<path d="M151.767 20.5044C152.954 20.4004 156.603 20.9327 157.874 21.1043C161.719 21.6237 166.45 24.6669 168.616 27.9024C169.868 29.6392 172.12 33.4541 171.486 35.7405C170.412 39.6109 167.423 42.2097 163.301 41.7874C160.186 41.4669 158.347 40.6754 156.671 38.0766C156.655 37.814 156.647 37.5502 156.647 37.2863C156.661 35.3806 157.644 34.875 159.324 34.9421C159.414 34.9652 159.489 35.0347 159.575 35.0937C159.745 36.4683 158.362 36.8848 161.439 36.8143C161.454 36.0483 161.428 35.3054 161.406 34.5394C157.173 31.273 156.453 35.6919 154.716 35.6433C153.99 35.2499 152.875 33.0202 152.52 32.2067C151.526 31.6432 151.419 31.214 150.598 30.4792C149.859 29.8174 148.915 29.3163 148.053 28.8709C145.019 27.303 143.492 26.7916 140.01 26.8784C138.402 26.9189 137.885 26.7592 136.317 27.2891L136.779 26.7615C139.45 23.6469 147.67 20.6698 151.767 20.5044ZM154.933 33.9505C155.473 33.3766 155.812 33.0132 156.544 32.6326C158.806 31.4535 162.789 32.3005 162.818 35.3644C162.826 36.1524 162.631 37.026 162.222 37.7168C161.704 37.8348 161.187 37.9586 160.671 38.0882C159.812 37.8406 159.648 37.7955 158.849 37.3766C158.767 36.93 158.756 36.7934 158.575 36.3838C158.314 36.2831 158.44 36.2785 158.192 36.3271C157.848 37.5536 157.91 37.5027 158.479 38.639C162.25 41.1371 166.603 41.8163 169.366 37.4171L170.338 35.862C170.512 33.1405 168.151 28.9727 166.376 27.0612C163.519 23.9837 159.165 22.1406 154.974 21.9538C153.965 21.9088 150.207 22.0451 149.78 21.9552C148.724 22.4845 146.902 22.5714 145.774 23.0487C144.676 23.5136 141.736 24.6696 140.987 25.4752L140.932 25.6486C141.569 25.9006 142.004 25.6935 142.614 25.7595C145.992 26.1216 149.613 27.8607 152.095 30.1344C153.678 31.5842 154.11 32.2322 154.933 33.9505Z" fill="black" fill-opacity="0.988235"/>
<path d="M98.4809 40.3653C100.448 40.1698 100.309 42.2259 101.481 43.5705C104.231 46.7235 107.865 47.2859 111.661 45.6671C112.255 45.4137 113.553 43.4895 114.347 44.4464C114.346 44.5864 114.354 44.591 114.307 44.7484C113.964 45.9309 101.759 55.9686 99.9913 56.8839C99.7397 57.0146 99.6925 57.0378 99.4336 56.9591L99.3283 56.686C99.9319 54.8868 108.687 48.9972 109.259 47.7776L109.146 47.6747C108.515 47.7267 108.316 47.8482 107.74 48.0912C104.476 47.3032 102.613 47.1308 100.506 44.0622C100.09 43.4571 99.7913 42.8184 99.3934 42.2537L99.3128 42.1415L99.1025 41.9529C98.8561 42.0072 98.6168 42.1311 98.5103 42.3521C96.8151 45.8846 94.1975 47.5636 90.3677 48.0333C90.2036 48.053 89.143 47.6758 88.7358 47.6399L88.641 47.7568C89.3935 49.2344 98.4073 55.0441 98.7216 56.8318C98.5644 57.1651 98.6846 57.0517 98.3613 57.1952C97.8869 56.8446 97.3994 56.4928 96.9136 56.1584C93.4024 53.7412 90.3186 50.7594 87.0358 48.0484C86.0422 47.228 85.0277 46.3475 84.1062 45.4507C83.8435 45.1962 83.7868 44.9659 83.7373 44.6188C83.8662 44.2636 83.7511 44.3851 84.0803 44.23C84.5502 44.2497 84.9112 44.3573 85.2311 44.7345C86.2639 45.9518 87.9049 46.1161 89.4288 46.4713C92.1333 47.1019 95.6148 45.0712 97.0999 42.8496C97.6287 42.0582 97.6448 40.9219 98.4809 40.3653Z" fill="black" fill-opacity="0.988235"/>
</svg>
