<svg width="406" height="211" viewBox="0 0 406 211" fill="none" xmlns="http://www.w3.org/2000/svg">
<path d="M255.698 18.189C257.773 17.9465 259.965 17.9505 261.815 18.951C265.176 20.7679 268.436 23.8362 269.54 27.5825C269.996 28.9954 270.371 30.7259 270.07 32.205C269.229 36.3333 266.874 40.1341 264.768 43.7372C262.72 47.2401 260.948 51.5176 258.214 54.4906C253.901 59.18 248.646 63.0384 243.907 67.2837C241.193 69.6985 237.454 74.0015 234.449 75.8785C230.283 78.4803 225.329 80.9709 220.992 83.323C218.622 84.608 216.312 85.97 213.974 87.3089C212.197 88.3266 208.779 89.6443 207.361 90.9736C202.453 95.6199 199.099 101.885 194.779 107.077C193.063 109.138 190.993 111.28 189.082 113.169C184.399 117.796 180.513 122.83 177.516 128.702C176.078 131.52 175.976 132.914 176.943 135.803C179.833 138.51 186.622 141.171 190.638 141.427C192.893 141.346 194.303 139.078 196.056 138.078C202.807 134.227 209.391 129.929 215.612 125.272C217.862 123.586 219.834 120.879 221.969 119.146C227.134 114.95 231.111 110.028 234.219 104.137C236.565 99.556 240.153 92.2483 246.207 92.1296C250.767 92.0401 252.821 96.1767 250.097 100.021C246.516 105.583 240.942 108.292 236.685 113.273C230.664 120.315 225.748 129.01 220.565 136.711C218.89 139.202 220.217 141.02 222.105 142.792C227.345 142.977 229.84 141.793 234.594 140.119C237.132 139.225 239.5 138.86 242.17 137.715C247.82 135.292 253.849 133.589 259.213 130.509C262.199 128.98 265.063 126.394 267.956 124.796C276.812 119.904 283.977 113.47 291.24 106.519C293.647 104.215 296.898 102.291 299.297 99.9355C302.688 96.6047 305.013 92.0647 308.137 88.5358C310.277 86.1152 316.381 87.1016 316.076 91.0072C315.874 93.6113 312.012 98.4493 311.93 100.903C311.641 109.383 313.286 118.198 309.948 126.37C308.555 129.759 307.376 133.246 305.806 136.545C304.965 138.33 300.146 144.403 300.063 145.766C300.943 146.007 310.063 142.982 311.234 142.186C316.22 138.791 321.821 135.842 327.036 132.853C330.965 130.6 335.437 127.256 339.057 124.562C341.128 123.02 344.283 118.187 346.191 116.146C348.993 112.319 351.177 107.78 354.69 104.393C357.083 102.074 360.994 101.167 363.32 98.7983C367.742 94.2944 378.663 87.638 384.968 90.893C389.93 93.4541 389.54 100.347 386.446 104.654C383.081 109.334 379.712 111.174 374.69 114.122C368.395 119.44 366.662 122.49 357.866 124.451C353.584 125.275 351.247 126.009 347.081 127.368C346.97 131.893 346.191 137.942 351.216 140.48C355.261 142.522 357.707 140.731 361.437 139.926C371.263 137.806 379.905 134.062 388.512 128.933C392.415 126.612 397.224 122.5 401.708 121.087C403.711 121.191 403.785 123.053 402.763 124.466C399.246 129.323 393.62 131.263 388.916 134.69C387.367 135.817 385.615 136.756 384.115 137.961C382.623 139.153 381.23 140.46 379.679 141.565C370.437 146.773 359.459 152.289 348.634 152.061C339.236 151.863 337.252 139.181 337.963 131.948C336.117 132.707 334.87 133.821 333.209 134.767C327.516 138.01 323.135 142.609 317.982 146.536C315.149 148.697 311.518 149.676 308.32 151.112C306.657 151.859 304.976 153.33 303.274 154.078C299.659 155.692 294.007 156.521 290.331 154.755C288.444 153.847 286.505 152.065 284.222 151.933C282.328 151.824 280.233 152.644 278.294 152.983C273.853 153.705 268.755 152.934 264.459 151.817C260.896 150.718 261.006 146.412 261.865 143.75C262.86 140.674 268.745 138.543 271.756 139.042C276.555 139.838 283.944 141.609 288.415 143.344C293.77 140.814 295.542 135.963 299.311 132.446C304.51 127.596 307.24 126.897 307.897 118.826C308.365 113.085 305.641 109.221 304.877 103.617C303.074 104.557 300.82 106.776 299.08 108.125L286.777 117.489C278.032 124.226 268.941 130.504 259.543 136.297C255.924 138.562 252.366 141.092 248.49 142.946C245.37 144.388 241.974 145.217 239.026 147.046C237.198 148.179 235.599 148.734 233.644 149.385C225.043 152.246 214.495 154.886 211.713 142.96C210.918 139.551 211.715 137.482 211.965 134.114C203.583 141.229 198.018 148.28 186.293 150.517C181.745 151.339 175.647 150.876 171.715 148.231C165.299 144.196 164.128 134.647 167.527 128.271C170.359 122.96 175.879 117.645 178.848 111.995C180.118 109.579 183.551 105.834 185.214 103.409C188.449 98.9673 191.844 94.5225 195.865 90.7632C204.102 83.0615 209.873 74.0821 216.883 65.429C222.065 59.0316 227.845 54.866 231.058 46.7691C231.793 44.9148 234.377 42.0987 235.195 40.0736C236.833 36.2119 238.391 32.1769 240.748 28.6678C244.752 23.5597 249.293 19.4109 255.698 18.189ZM220.87 78.5668C222.337 77.7818 223.821 77.0256 225.319 76.299C227.769 74.9215 229.996 73.6178 232.117 71.7176C234.412 69.6838 235.686 67.049 237.684 64.7325C241.636 60.1517 246.013 56.186 250.862 52.5423C255.56 49.0116 257.894 42.7055 260.153 37.4666C261.521 34.2923 257.295 30.688 254.9 29.245C252.018 31.3482 250.297 32.4497 247.847 35.1155C242.438 40.9998 239.852 48.3625 235.576 55.0218C232.96 59.0988 230.048 63.1202 227.522 67.2779C225.449 70.7739 222.263 74.8218 220.87 78.5668ZM352.094 120.755C356.761 119.168 361.768 115.444 366.51 113.444C369.289 112.272 378.469 104.698 377.544 101.32C376.602 100.021 374.581 100.466 373.149 100.607C370.989 101.212 367.53 101.994 365.797 103.288C363.221 105.209 362.067 108.523 359.803 110.926C358.09 112.745 347.695 119.563 348.262 121.718C349.158 121.791 351.159 121.061 352.094 120.755ZM277.3 147.377L279.689 147.239C276.686 144.72 272.205 143.089 268.331 143.358C261.923 149.817 274.447 147.717 277.3 147.377Z" fill="#262223"/>
<path d="M170.148 1.3133C171.086 1.26771 172.163 1.27483 173.093 1.31022C179.292 1.54605 182.209 2.29436 186.511 6.97085C189.497 10.2165 190.327 12.2663 190.428 16.7947C190.525 21.1459 185.791 29.6178 182.913 32.4647C179.405 35.934 170.709 38.1005 166.098 40.5074C163.781 41.7167 160.803 43.7274 158.49 44.6112C156.029 45.552 152.507 45.7842 149.934 46.9447C147.269 48.1471 145.138 49.9655 142.274 50.7467C139.479 51.5089 136.524 51.7536 133.716 52.29C127.243 53.5263 122.472 54.4991 115.759 54.1746C114.393 64.0226 114.556 65.7637 117.529 74.9962C118.773 75.2966 121.79 75.6712 123.163 75.8289C125.011 76.0413 128.444 76.7567 130.083 76.8169C134.818 76.9004 137.564 75.4306 142.033 78.0087C148.021 81.463 146.459 86.9614 143.746 91.9976C142.758 93.8296 140.453 94.796 138.449 95.2159C130.679 96.8436 123.07 91.5896 118.726 85.5394C117.852 84.3218 116.048 80.6782 114.961 80.1086C112.505 78.821 108.147 81.7239 106.1 81.9895C103.086 82.3742 99.7469 81.1723 96.7313 81.7942C90.1243 83.1566 84.1611 85.3529 77.3436 85.8545C75.562 85.9855 71.5944 87.9641 69.5934 88.4285C67.034 89.0226 64.2686 89.8898 61.7182 90.5781C56.2079 92.277 50.548 95.9056 45.8393 99.2029C43.468 101.163 41.2533 103.364 39.0636 105.525C32.4078 112.093 26.2824 119.141 20.7937 126.705C19.48 128.516 18.8327 131.61 17.8576 133.656C15.9748 137.609 13.4393 141.282 12.582 145.637C11.767 149.628 11.8079 153.654 11.5711 157.717C11.3819 160.963 10.8636 164.361 11.0214 167.597C11.119 169.781 11.5078 171.942 12.1775 174.024C14.8196 182.019 22.3297 188.787 28.4995 194.17C30.121 195.585 32.339 198.039 34.1479 198.956C35.2322 199.506 37.8439 200.028 39.1684 200.478C46.7972 203.072 54.5298 204.996 62.6488 204.605C64.7396 204.505 67.8698 202.982 70.0377 202.684C72.6429 202.325 75.5303 202.275 78.1239 201.874C81.4692 201.358 85.642 200.733 88.6879 199.312C90.3516 198.535 92.3091 197.164 93.9897 196.316C95.763 195.422 97.457 194.604 99.2223 193.676C103.417 191.471 105.928 187.492 110.006 185.163C111.357 184.39 113.321 184.078 114.86 183.439C120.835 180.963 127.101 173.81 130.943 168.637C131.824 167.449 132.948 161.839 133.657 160.035C135.014 156.585 136.811 153.055 137.813 149.597C139.117 145.101 139.194 142.131 141.19 137.811C138.243 135.032 137.073 131.359 135.73 127.649C133.138 125.613 129.766 125.35 127.18 123.871C121.782 120.785 116.48 118.549 110.7 116.314C107.939 115.247 104.578 116.696 101.768 117.278C97.3463 118.194 92.6238 118.957 89.5272 122.562C88.5468 123.83 88.5045 127.675 87.3514 128.616C81.1694 133.662 80.7651 138.764 77.2601 145.208C75.8859 146.766 73.7065 147.237 72.3195 145.564C69.1447 141.734 70.7624 139.463 72.4098 135.863C75.112 129.956 77.8665 127.641 83.0585 123.982C84.3027 123.105 86.7883 120.387 88.1235 119.106C95.858 112.61 105.822 109.388 115.895 110.126C125.519 110.768 134.816 114.263 140.953 121.768C142.997 123.379 146.698 131.995 145.852 134.486C143.969 140.036 147.019 149.169 146.147 153.935C143.732 164.433 134.32 174.821 126.643 182.145C121.929 186.642 116.967 190.3 112.449 194.982C107.31 200.307 96.9367 202.93 89.9378 204.147C87.207 204.622 84.1827 205.678 81.3903 206.115C75.637 206.896 69.872 208.049 64.1142 208.696C57.4702 208.837 50.8301 208.431 44.1787 208.002C38.7776 207.654 30.6977 205.176 25.5317 203.643C20.7492 202.223 14.1675 196.457 10.8174 192.929C8.11388 190.082 6.81738 185.549 5.97779 181.862C3.33178 175.323 1.60979 169.886 2.32525 162.71C3.00007 155.942 5.01164 150.627 7.77811 144.54C8.56644 142.806 9.29381 139.194 10.1941 137.67C13.5168 132.047 13.9889 125.898 16.8334 120.279C21.0175 113.583 27.8402 106.688 33.824 101.553C37.1582 98.6919 42.0252 96.1166 45.5984 93.4117C47.4568 92.0851 50.4427 91.0198 52.2074 89.7277C58.6272 85.0261 66.0672 84.914 72.887 81.816C78.9873 79.0446 84.9569 74.6441 91.9469 73.6505C97.8213 72.8155 105.452 73.3185 111.363 73.858C110.766 67.8626 110.363 58.9614 110.477 52.9817C104.704 52.7736 96.7953 52.6949 91.3856 51.2513C88.6012 50.508 83.2293 48.1706 80.3015 47.0589C73.7665 44.427 66.1466 40.7862 63.1854 34.0072C60.124 26.9993 62.2387 15.2168 69.8799 12.0151C71.1764 12.5458 71.421 12.6917 72.5318 13.5234C76.2519 21.0871 69.366 24.1934 69.1438 30.1362C69.1292 30.5282 70.4498 36.7401 70.899 37.3519C71.1953 37.7555 71.6649 38.4042 72.1735 38.7219C76.6692 41.53 83.0849 45.2376 88.4126 45.4259C91.514 45.5353 93.9382 45.1685 97.0222 45.6221C101.361 46.26 105.521 47.6288 109.892 47.143C110.359 47.091 112.062 46.6717 112.221 46.4039C113.07 44.9747 113.821 42.4198 114.506 40.985C116.206 37.4252 118.228 32.7274 120.244 29.4659C121.081 28.1122 125.451 25.0399 126.656 23.7904C130.294 20.0169 132.362 17.2857 136.799 14.3006C140.701 11.6761 144.581 11.4439 148.224 9.83479C155.523 6.61047 161.856 2.21349 170.148 1.3133ZM132.394 46.5675C135.498 46.0981 139.92 45.736 142.715 44.9196C146.336 43.7758 149.593 41.3988 153.028 39.8509C160.722 36.3836 168.886 35.1086 174.729 28.3986C176.422 26.4549 178.911 24.5827 180.098 22.1819C179.81 19.9955 179.575 17.8109 179.33 15.632C179.043 13.0911 179.134 10.0622 176.818 8.41524C174.042 6.44158 169.119 6.43186 165.847 6.65067C162.834 7.24977 160.743 8.22424 158.017 9.56364C151.369 12.83 145.085 15.98 139.074 20.3487C136.487 22.2289 132.378 22.912 130.688 26.0644C127.397 32.396 120.546 39.0899 117.876 45.6297C124.051 46.5312 126.103 47.5196 132.394 46.5675ZM137.234 86.0469C138.136 83.9909 138.074 83.2508 138.137 81.0383C135.727 81.4859 132.324 81.9425 129.883 81.5714C126.679 81.0841 124.418 80.4093 121.126 80.2759C121.62 81.0697 122.797 83.0857 123.501 83.7453C126.434 86.4916 132.267 89.0042 136.238 87.588C136.641 87.4444 137.055 86.4599 137.234 86.0469Z" fill="#262223"/>
<path d="M259.6 68.0201C261.937 68.0655 262.279 68.9431 263.513 70.7642C262.897 72.6904 259.34 79.8629 257.731 81.3311C257.041 81.9606 255.611 81.6434 254.692 81.5066C245.116 77.6268 253.639 69.3533 259.6 68.0201Z" fill="#262223"/>
</svg>
