<svg width="357" height="357" viewBox="0 0 357 357" fill="none" xmlns="http://www.w3.org/2000/svg">
<path d="M0 124.811C0.682582 123.668 0.725917 116.772 0.9957 114.934C4.01543 94.3505 13.2417 74.332 28.342 60.0948C46.5075 42.9675 67.6545 37.051 91.9488 35.5383C94.7113 35.3663 97.661 34.6913 100.503 34.8425C125.417 33.4478 150.519 33.4328 175.484 33.4573C189.104 33.4 202.724 33.534 216.34 33.8588C221.994 33.9498 227.739 33.7803 233.396 34.0425C238.692 34.2878 243.904 34.9513 249.237 34.9298C251.725 34.9198 254.75 35.7728 257.26 35.879C261.585 36.2395 265.822 36.6373 270.12 37.2958C281.54 39.0728 292.652 42.4598 303.122 47.356C321.28 55.7445 336.257 69.7525 345.84 87.3095C350.797 96.588 354.227 107.318 355.897 117.657C356.27 119.967 356.325 124.981 357 126.849V148.185C356.535 150.103 356.403 153.122 356.095 155.236C355.47 159.378 354.595 163.478 353.475 167.514C347.005 190.448 332.308 210.193 312.193 222.973C306.268 226.782 299.915 229.885 293.267 232.219C290.125 233.312 286.512 234.258 283.485 235.377C269.072 269.31 243.627 295.615 209.283 309.685C189.075 318.297 169.252 319.887 147.696 319.922C125.658 320.347 105.871 317.372 85.3655 308.99C32.85 287.517 5.84108 235.161 1.41804 180.861C1.12685 177.286 0.477688 156.646 0 155.412V124.811Z" fill="#FEFEFE"/>
<path d="M141.514 56.116C153.058 56.0083 164.603 55.9805 176.148 56.033C192.904 56.0345 209.314 55.978 226.085 56.6755C241.97 57.336 258.475 57.738 274.08 61.1502C284.66 63.6505 294.735 67.6828 303.72 73.7148C325.403 88.268 334.67 111.511 334.515 137.017C334.408 154.677 331.16 168.96 321.025 183.734C311.525 197.436 297.638 207.489 281.655 212.235C277.11 213.566 271.653 214.386 266.968 215.259C266.603 215.703 265.408 219.508 265.088 220.423C254.858 249.699 233.29 273.635 205.234 286.85C190.204 293.798 173.467 296.777 156.998 297.362C121.045 298.637 89.0896 293.01 62.0064 267.145C55.4399 260.775 49.6889 253.618 44.8854 245.831C26.1256 215.875 23.5758 183.392 22.567 149.115C21.9544 128.303 22.3194 108.058 33.4594 89.7422C44.7646 71.1547 63.3534 60.92 84.6999 59.0815C103.762 56.9858 122.325 56.5065 141.514 56.116Z" fill="#262223"/>
<path d="M138.696 81.3828C147.16 81.1178 155.69 81.2245 164.174 81.179C186.852 81.057 209.202 81.1655 231.876 82.2493C254.327 83.3223 279.27 83.6708 296.362 100.719C306.47 110.803 309.4 124.291 309.077 138.123C309.207 153.048 305.005 165.4 294.28 176.077C286.905 183.618 274.542 189.699 264.035 190.421C259.29 190.748 251.662 190.519 246.67 190.496C246.645 190.646 246.616 190.796 246.585 190.945C240.832 219.165 229.841 242.574 205.052 258.86C189.944 268.45 173.4 271.535 155.824 272.13C129.192 273.123 99.3466 269.408 79.4436 249.896C49.8851 220.919 47.9866 175.872 47.9419 137.057C47.9256 122.968 48.7201 107.799 59.2146 97.1215C72.8484 83.2502 95.9829 83.4832 114.076 82.3682C122.382 81.9035 130.373 81.5618 138.696 81.3828Z" fill="#FEFEFE"/>
<path d="M150.225 130.332C157.911 118.256 171.234 112 185.472 113.672C195.585 114.94 204.79 120.148 211.086 128.163C220.779 140.471 221.975 156.45 217.31 171.021C211.647 188.712 198.194 202.653 183.89 213.876C177.371 218.647 160.998 230.838 153.818 231.868C150.855 232.293 147.559 232.157 144.699 231.233C138.222 229.139 123.068 218.432 117.334 214.122C100.019 201.106 84.4443 183.219 81.3613 161.048C79.7708 149.611 82.5076 137.577 89.5248 128.336C96.0078 119.8 105.178 115.038 115.675 113.589C130.721 111.937 141.887 118.302 150.225 130.332Z" fill="#E0BFC4"/>
<path d="M253.657 111.085C274.277 109.893 284.482 124.915 281.15 144.218C280.012 150.807 276.64 155.546 271.245 159.286C268.635 160.863 265.775 161.983 262.79 162.598C259.19 163.327 252.76 164.007 249.571 161.88C246.093 159.558 246.8 154.382 246.813 150.645L246.841 138.37L246.808 125.429C246.773 118.742 245.306 112.588 253.657 111.085Z" fill="#262223"/>
</svg>
