<svg width="360" height="357" viewBox="0 0 360 357" fill="none" xmlns="http://www.w3.org/2000/svg">
<path d="M253.295 0H263.717C264.575 0.503152 266.055 0.78527 267.068 0.979895C271.935 1.91411 276.423 3.51018 280.89 5.72008C297.128 13.75 311.727 25.0788 324.957 37.372C327.515 39.7538 331.23 43.3185 333.247 45.9917C335.412 48.8242 337.05 52.024 338.078 55.4372C339.795 60.9572 339.835 65.002 340.027 70.6807C340.64 88.7375 336.825 100.84 331.17 117.426C342.805 147.659 346.073 181.467 338.663 213.138C348.738 229.216 360.48 247.362 355.902 267.195C354.377 273.798 351.5 280.135 348.217 286.035C341.205 298.64 320.547 326.525 308.645 333.88C295.725 341.863 272.13 339.37 258.04 335.962C251.658 334.417 245.491 332.215 239.319 330C233.192 331.847 227.827 334.102 221.428 335.802C194.035 343.08 170.7 342.88 143.281 337.652C134.264 343.582 126.74 348.508 116.529 352.538C114.142 353.478 111.715 354.31 109.254 355.033C108.174 355.355 103.247 356.7 102.735 357H92.5745C89.7678 355.98 86.1133 355.463 83.2128 354.408C64.8575 347.735 47.7605 334.457 33.3447 321.455C28.3272 316.93 23.0682 312.343 20.1191 306.285C13.5536 292.803 16.1749 270.56 19.6106 256.54C21.2477 249.86 23.9347 243.263 26.0303 236.82C24.5722 233.986 22.2552 226.342 21.2724 223.057C14.0752 199.005 12.7357 169.134 18.139 144.424C12.6558 135.487 8.08005 128.997 4.19467 118.837C3.0968 115.917 2.12382 112.953 1.27839 109.951C0.86327 108.514 0.564552 106.739 0 105.417V95.0447C0.486455 94.0975 1.31191 90.316 1.65162 89.042C2.39022 86.198 3.33728 83.4125 4.48513 80.7077C11.3891 64.6595 25.5692 46.6032 37.5095 33.779C39.8225 31.295 42.8295 28.1262 45.4857 26.063C47.7657 24.2684 50.2985 22.821 53.0023 21.7678C68.5203 15.5923 98.6558 20.1871 113.957 26.7407C145.923 13.7775 181.559 9.20972 215.346 17.709C217.902 16.1657 220.479 14.2991 223.114 12.6922C228.502 9.44613 234.138 6.62963 239.969 4.26875C243.594 2.82533 247.355 1.72116 251.125 0.723595C251.897 0.519133 252.577 0.366462 253.295 0Z" fill="#FEFEFE"/>
<path d="M221.828 52.0408C224.315 50.1525 227.465 47.449 229.768 45.6563C234.707 41.8118 254.29 29.77 259.895 31.2278C276.365 35.5123 295.822 52.3878 307.667 63.995C308.892 65.1345 308.735 68.6018 308.825 70.3575C309.477 83.1075 306.56 94.6527 301.965 106.452C300.915 109.153 298.69 114.818 297.215 117.396C298.325 120.2 299.81 123.022 301.017 125.822C302.967 130.46 304.662 135.201 306.095 140.025C312.367 161.602 313.127 184.407 308.302 206.353C307.54 209.829 305.817 216.682 304.4 219.936L304.297 220.165C306.405 222.499 309.037 225.701 310.87 227.995C314.947 233.104 326.605 252.18 325.847 258.21C324.497 268.93 310.682 286.763 303.532 295.323C300.31 299.183 296.352 303.143 293.065 306.775C292.885 307.013 292.207 307.313 291.915 307.353C277.29 309.29 262.832 305.91 249.344 300.39C245.8 298.94 242.179 297.625 239.049 295.818C232.513 298.953 227.188 301.393 220.133 303.703C193.289 312.49 163.468 312.51 136.684 303.473C136.416 303.383 136.244 303.303 135.996 303.175C125.586 312.505 114.245 320.67 100.819 325.123C96.285 326.625 92.0085 324.783 87.9787 322.75C73.4215 315.408 60.2092 304.225 48.539 293.06C48.142 292.77 47.7982 292.043 47.7385 291.565C45.5615 274.243 50.8672 257.613 57.7765 241.943C58.4485 240.418 59.1402 238.837 60.027 237.432C59.646 236.224 58.2142 233.266 57.6277 231.949C56.2015 228.808 54.8977 225.613 53.719 222.37C45.2952 198.717 43.6937 173.17 49.0975 148.65C49.6982 146.021 51.201 139.452 52.2012 137.323C43.4945 126.906 33.8762 113.959 31.1605 100.354C30.9487 99.294 31.8647 96.1105 32.2845 95.1243C39.442 78.3055 51.6955 64.1313 64.1532 51.003C66.1632 50.1205 69.6455 50.188 71.8647 50.1208C84.4862 49.7398 95.7405 52.888 107.4 57.4578C108.854 58.0275 113.671 59.9025 114.966 60.715C115.9 60.5645 125.959 55.5688 127.821 54.7915C134.585 51.9648 141.574 49.7128 148.716 48.0598C169.396 43.283 190.919 43.5255 211.486 48.767C213.766 49.3408 219.926 50.8458 221.828 52.0408Z" fill="#E0BFC4"/>
<path d="M221.828 52.0408C224.315 50.1525 227.465 47.449 229.768 45.6563C234.707 41.8118 254.29 29.77 259.895 31.2278C276.365 35.5123 295.822 52.3878 307.667 63.995C305.772 64.494 301.125 63.89 298.65 64.282C287.4 66.0625 277.212 72.23 268.532 79.3223C251.642 93.2725 237.899 110.643 228.209 130.29C233.652 132.747 240.479 136.809 246.042 139.627C243.961 140.21 240.103 141.838 237.989 142.658L222.665 148.615L201.221 156.952C196.987 158.597 192.294 160.298 188.2 162.136L177.545 122.374C175.899 116.214 173.356 105.554 171.299 99.807C174.439 101.256 184.003 106.187 186.759 108.035C193.011 92.9653 202.441 75.839 212.336 62.832C215.283 58.9588 218.699 55.658 221.828 52.0408Z" fill="#262223"/>
<path d="M64.1532 51.003C63.0205 66.391 69.2657 77.8357 78.6085 89.762C89.8972 103.416 103.337 115.138 118.4 124.466C122.556 127.001 126.178 128.563 130.115 130.809C133.267 124.996 136.297 118.93 139.599 113.227C143.928 125.03 148.82 137.131 153.382 148.893C155.819 155.177 159.314 165.037 162.033 170.829L121.053 181.875C115.668 183.317 104.563 185.96 99.6177 187.821C102.012 183.397 105.377 176.282 107.851 172.276C91.8487 165.109 76.3612 157.345 62.4785 146.442C58.5977 143.394 55.7675 140.626 52.2012 137.323C43.4945 126.906 33.8762 113.959 31.1605 100.354C30.9487 99.294 31.8647 96.1105 32.2845 95.1242C39.442 78.3055 51.6955 64.1312 64.1532 51.003Z" fill="#262223"/>
<path d="M195.005 187.212C209.074 182.862 224.477 179.507 238.68 175.37C244.122 173.785 252.19 172.124 257.225 170.18C255.985 173.034 250.725 183.143 249.046 185.674C268.25 193.344 289.438 205.927 304.298 220.165C306.405 222.499 309.038 225.701 310.87 227.995C314.948 233.104 326.605 252.18 325.848 258.21C324.498 268.93 310.683 286.763 303.533 295.323C300.31 299.183 296.353 303.142 293.065 306.775C292.798 306.11 293.12 299.745 292.845 297.935C291.058 286.097 284.58 275.838 277.15 266.723C275.6 264.62 272.405 261.293 270.515 259.29C260.573 248.952 249.32 239.96 237.044 232.542C233.736 230.587 230.313 228.931 226.907 227.158C223.74 232.62 220.658 239.019 217.46 244.705L204.165 210.458C201.212 202.852 198.21 194.66 195.005 187.212Z" fill="#262223"/>
<path d="M110.354 217.39C128.619 209.987 147.168 203.166 165.48 195.873C166.357 195.524 167.176 195.212 168.024 194.787L184.762 257.162C179.766 254.515 174.33 251.48 169.292 248.986C167.897 252.89 165.753 257.247 163.896 260.997C157.103 274.717 149.351 288.362 139.062 299.782C138.255 300.677 136.63 302.26 135.996 303.175C125.586 312.505 114.246 320.67 100.819 325.122C96.2851 326.625 92.0086 324.782 87.9788 322.75C73.4216 315.407 60.2093 304.225 48.5391 293.06C49.1568 292.645 51.3223 292.842 52.2011 292.867C66.1638 293.275 79.1121 284.65 89.4373 276.202C103.24 264.45 120.845 243.483 127.869 226.708C122.321 223.729 115.953 220.098 110.354 217.39Z" fill="#262223"/>
<path d="M60.027 237.432L60.173 237.644C61.6245 239.771 63.2855 243.085 64.6535 245.41C67.2363 249.807 70.088 254.04 73.1928 258.085C75.7728 261.462 78.5228 264.707 81.4318 267.807C84.0335 270.53 87.078 273.325 89.4373 276.203C79.112 284.65 66.1638 293.275 52.201 292.867C51.3223 292.842 49.1568 292.645 48.539 293.06C48.142 292.77 47.7983 292.043 47.7385 291.565C45.5615 274.243 50.8673 257.613 57.7765 241.943C58.4485 240.418 59.1403 238.837 60.027 237.432Z" fill="#AB727B"/>
<path d="M277.15 266.723C284.58 275.838 291.057 286.097 292.845 297.935C293.12 299.745 292.797 306.11 293.065 306.775C292.885 307.012 292.207 307.313 291.915 307.353C277.29 309.29 262.832 305.91 249.344 300.39C245.8 298.94 242.179 297.625 239.049 295.818C249.381 290.655 260.165 282.895 268.647 275.098C271.61 272.375 274.257 269.473 277.15 266.723Z" fill="#AB727B"/>
<path d="M307.667 63.995C308.892 65.1345 308.735 68.6017 308.825 70.3575C309.477 83.1075 306.56 94.6527 301.965 106.452C300.915 109.153 298.69 114.818 297.215 117.395C297.265 117.512 295.537 114.529 295.385 114.24C290.252 104.756 283.987 95.933 276.722 87.964C274.31 85.2755 270.845 82.2052 268.74 79.584L268.532 79.3222C277.212 72.23 287.4 66.0625 298.65 64.282C301.125 63.89 305.772 64.494 307.667 63.995Z" fill="#AB727B"/>
<path d="M64.1532 51.003C66.1632 50.1205 69.6454 50.188 71.8647 50.1208C84.4862 49.7398 95.7404 52.888 107.4 57.4578C108.854 58.0275 113.671 59.9025 114.966 60.715C113.607 61.9043 109.833 63.9353 108.093 65.0145C104.807 67.051 102.271 68.834 99.1837 71.1503C95.2842 74.0523 91.5592 77.182 88.0284 80.5233C84.9152 83.4998 81.7472 86.9083 78.6084 89.762C69.2657 77.8358 63.0204 66.391 64.1532 51.003Z" fill="#AB727B"/>
</svg>
