<svg width="510" height="84" viewBox="0 0 510 84" fill="none" xmlns="http://www.w3.org/2000/svg">
<g clip-path="url(#clip0_24_5498)">
<path d="M62.3164 0.590917C66.2104 -0.137373 76.9375 3.2202 81.2554 3.25593C89.769 3.32639 95.003 -1.90408 102.647 5.12167C103.32 8.02347 102.94 8.71163 100.656 10.4C94.0527 10.6997 93.7085 10.253 87.8714 7.27965C86.841 6.75473 83.2197 5.8472 81.8353 5.50988C71.5828 9.0464 65.3704 17.3372 61.1676 26.7289C60.26 28.7567 58.4949 30.8208 57.5585 32.9562C53.4001 42.4396 49.2703 52.0625 44.3904 61.1952C43.8369 62.2274 38.0251 68.9453 36.8854 70.2291C32.4585 75.9656 25.6689 79.9911 18.6032 81.2629C5.09581 83.6946 2.45933 71.1093 0.74856 60.9029C-0.74513 51.9918 6.12612 44.6687 10.8003 38.1848C10.0717 31.7394 8.90455 23.8212 13.164 18.2221C20.1896 8.98676 30.677 5.81715 41.5419 3.49593C43.4469 3.08898 45.1908 1.80569 47.0602 1.61032C52.1219 1.08132 57.2692 1.32785 62.3164 0.590917ZM13.2394 35.2314C15.3042 32.6012 17.6446 30.6671 21.1017 30.1912C28.9512 29.1107 34.5953 35.7043 36.0392 42.8206C36.2937 44.0745 35.4684 46.3036 35.4296 47.6353C35.5118 52.284 36.4979 55.6206 33.212 59.6505C32.9525 59.9661 32.6826 60.2733 32.4027 60.5713C31.317 60.3742 29.9095 60.1597 28.8942 59.8064C31.9228 54.4003 33.5482 51.9143 33.715 45.4784C34.051 32.5314 23.6821 29.7176 14.5192 37.753C16.2233 40.6142 17.697 43.7606 21.1495 44.8616C24.8044 46.0273 26.3581 40.9313 29.4104 43.5284C29.8729 45.618 27.9957 46.1354 26.3405 46.6497C21.9728 48.0057 14.1161 43.9554 11.7704 40.1348C9.08885 43.3485 6.13267 48.0212 4.74386 52.012C4.49643 52.723 4.64996 55.3022 4.50094 56.2833C3.51782 62.756 4.71744 69.3424 10.1278 73.594C12.8205 75.71 15.8528 77.7126 19.607 77.1902C23.853 76.4447 30.5933 74.8116 33.1958 71.1372C33.9312 70.0988 34.8401 68.8842 35.5984 67.9437C37.431 65.6713 39.5873 63.5852 40.9594 60.9585C42.6209 57.7779 43.9419 54.4581 45.5952 51.2396C46.7723 48.9478 48.3823 46.7266 49.4787 44.499C50.6175 42.1857 51.4271 39.1392 52.5407 36.7606C53.6255 34.4444 54.9941 32.2257 56.1005 29.8813C56.5032 29.0277 56.7736 25.8571 57.2214 25.1226C61.2563 18.5014 67.0339 12.053 72.9041 7.02497C74.2478 5.87406 76.2552 5.2055 77.7643 4.65054C75.0121 4.19767 68.6311 2.81288 66.1735 3.34565C59.6862 3.71189 53.6113 4.60581 47.1902 5.62631C45.0479 5.96674 42.6697 5.47328 40.5034 5.75713C32.0307 6.90265 24.3971 11.0632 18.3099 16.9365C16.4753 18.7066 15.0501 24.133 13.444 26.4745C11.6549 29.0823 11.984 32.4749 13.2394 35.2314ZM85.5692 4.45967C89.0055 5.73593 90.8186 6.38722 94.4095 7.08327C95.3827 7.39181 96.649 7.83003 97.6155 8.05419L99.8106 5.91549C97.1244 3.97645 95.8275 3.23303 92.5401 3.5713C90.5893 3.8839 87.4732 4.42638 85.5692 4.45967Z" fill="#222121"/>
<path d="M330.586 1.79864C330.743 1.78196 330.897 1.7682 331.054 1.75735C332.556 1.65434 339.377 1.17505 339.511 3.22015C338.495 4.64859 335.387 5.19437 333.666 5.64305L331.415 4.7274C325.414 5.55757 322.368 6.08598 316.681 8.15783C311.15 10.1712 309.05 10.58 305.156 15.6675C301.107 20.9591 300.599 25.1668 301.869 31.5578C302.003 34.3139 303.525 35.9124 305.843 37.6554C309.852 40.6703 316.324 42.9826 321.26 43.8842C323.337 44.2637 326.497 43.9398 328.649 44.0753C330.96 44.2211 333.731 44.1423 335.992 43.8269C336.996 38.5468 338.637 33.0945 339.601 27.7487C340.111 24.8976 342.23 21.0702 343.309 18.3706C345.893 11.9083 352.896 8.71123 358.636 5.59917C364.65 2.36289 368.296 1.06843 372.225 7.82781C373.037 19.6429 362.252 30.7015 353.678 37.5116C352.122 38.7489 341.546 44.231 339.698 44.7577C339.723 46.0463 339.429 47.6425 339.509 48.8357C340.266 60.1869 335.044 66.9704 326.407 74.1479C323.09 77.4466 322.794 76.5357 318.548 78.4297C318.07 78.643 316.063 80.3147 315.525 80.7625C306.939 80.7034 296.716 82.7718 288.364 79.2382C285.692 78.1081 283.326 70.9641 284.111 68.1506C285.363 63.658 288.875 58.3261 293.519 56.7525C294.856 56.304 296.906 57.0704 297.289 58.4987C296.791 60.4727 292.702 60.7069 290.984 61.3711C289.721 61.8594 289.353 62.0331 288.145 62.7568C285.655 67.3204 286.785 70.0819 289.248 74.1694C292.657 75.6814 294.059 77.2652 297.944 77.9576C310.052 80.1956 322.597 75.6625 331.181 66.9983C336.443 61.6858 336.802 52.3818 336.635 45.3766C327.234 45.4924 318.09 48.1461 309.404 42.8655C307.357 41.8519 305.768 40.8143 303.903 39.4938C295.655 33.6606 294.809 24.6214 300.875 16.5698C304.765 11.4099 311.981 7.16444 318.025 4.93957C319.226 4.49828 321.873 4.75146 323.2 4.26959C325.571 3.51344 328.185 2.06265 330.586 1.79864ZM339.309 42.6726C341.067 42.0562 342.193 41.6706 343.861 40.7988C346.185 39.4056 347.318 37.8926 349.29 36.5982C357.66 31.1071 374.242 19.2666 367.09 7.40524C367.053 7.34286 367.013 7.28134 366.973 7.22073C365.795 6.75022 364.421 6.12753 363.131 6.2456C358.83 7.35673 359.537 8.20011 356.621 9.80943C351.153 12.8284 349.168 13.613 345.642 19.1867C340.261 27.6949 341.575 33.8604 339.309 42.6726Z" fill="#222121"/>
<path d="M390.125 31.6044C390.909 31.5894 391.726 31.6218 392.481 31.865C395.235 32.7544 393.397 34.7583 394.239 36.3443C395.494 36.3802 396.749 36.3055 398.004 36.2437C398.701 36.6523 399.511 37.1219 400.098 37.6758C400.639 38.1833 400.977 38.8423 400.992 39.5899C401.052 42.9337 396.465 46.6218 394.378 48.8279C393.671 49.5751 392.976 50.5994 393.024 51.6684C393.061 52.5511 393.621 53.2946 394.259 53.8589C395.113 54.6123 396.201 54.8978 397.319 54.7234C400.975 54.1526 410.141 47.436 413.005 44.731C415.565 42.3096 417.642 39.3607 420.264 37.0063C420.82 36.5068 421.435 36.0272 422.214 35.9938C422.792 35.9689 423.27 36.1717 423.688 36.5648C428.27 40.8583 418.745 48.2728 418.919 53.1005C418.939 53.6117 419.089 54.1033 419.477 54.4543C420.207 55.1108 421.417 55.1283 422.346 55.0725C427.115 54.7865 430.678 51.3842 433.679 47.9876C433.507 47.5875 433.35 47.1769 433.256 46.7508C432.847 44.9331 432.825 42.1449 433.868 40.528C434.21 40.0005 434.68 39.5947 435.308 39.4741C436.117 39.3181 437.131 39.5481 437.805 40.0175C440.502 41.8903 436.428 46.2523 436.834 48.6147C437.218 49.1142 437.432 49.2953 438.084 49.4017C441.289 49.9237 445.493 45.3073 447.199 42.92C448.675 40.8536 449.724 38.1414 451.823 36.6408C452.555 36.1181 453.28 35.8677 454.174 36.0167C454.759 36.385 454.936 36.4956 455.242 37.1117C455.18 39.7374 451.883 41.9194 450.192 43.6582C449.206 44.67 448.344 45.7567 447.53 46.9088C446.501 48.3673 443.147 52.4121 443.471 54.0754C443.585 54.6726 443.857 54.7954 444.33 55.1071C448.369 55.7688 459.722 50.4543 462.89 47.5889C463.731 46.8276 464.075 45.4192 464.775 44.4986C466.54 42.1771 469.937 39.7409 472.407 38.1671C474.711 36.7004 477.823 35.5324 480.583 36.1717C481.489 36.3817 482.391 36.9251 482.884 37.7331C483.302 38.4227 483.459 39.2636 483.267 40.0514C483.085 40.7953 482.692 41.2136 482.057 41.605C481.472 41.6568 481.185 41.7107 480.662 41.3875C479.86 40.8897 479.686 39.5329 479.477 38.6788L476.972 37.4954C472.191 39.8486 469.125 43.5745 466.525 48.0895C465.696 49.5313 465.108 51.6662 465.576 53.3175C465.726 53.843 466.04 54.2685 466.523 54.5288C467.838 55.2367 469.969 54.3614 471.354 54.0485C476.023 52.9924 478.69 51.924 482.652 49.1952C483.954 48.299 485.322 47.3849 486.425 46.2428C487.73 44.8897 488.576 43.0799 489.764 41.6197C491.418 39.5862 496.478 36.2033 498.985 35.4519C499.989 35.1509 501.227 34.9601 502.183 35.4913C502.85 35.863 503.201 36.4742 503.398 37.1942C503.734 38.4207 503.485 39.4788 502.858 40.5531C501.623 42.6639 495.676 46.7027 493.387 47.6814C491.622 48.4353 489.597 48.8404 487.742 49.334C487.707 50.5483 487.473 52.4712 488.195 53.5089C488.609 54.0993 489.368 54.4558 490.058 54.5782C494.441 55.3563 502.474 50.7401 506.015 48.2988C506.974 47.6704 507.838 46.9995 509.029 47.1893L509.233 47.6002C509.014 48.0359 508.725 48.3939 508.381 48.7385C504.735 52.4094 494.476 58.8597 489.157 58.8597C487.891 58.8597 486.709 58.5072 485.797 57.5851C484.091 55.855 484.136 53.1997 484.136 50.9432C479.26 53.7363 476.905 55.7895 471.294 57.4747C469.952 57.8781 468.587 58.3116 467.17 58.2884C465.97 58.2687 464.859 57.8499 464.025 56.9712C462.479 55.3448 462.152 52.6436 462.2 50.5064C457.481 53.3023 449.711 58.7972 444.153 58.7272C443.085 58.7137 441.984 58.4235 441.224 57.6324C439.768 56.1164 440.086 53.8846 440.119 51.9674C440.037 51.9253 439.952 51.8902 439.865 51.8555C438.224 51.1963 437.263 52.0668 434.872 50.6863C433.769 51.7369 432.638 52.7589 431.48 53.7508C428.987 55.862 424.326 59.3809 420.969 59.0643C419.766 58.9506 418.489 58.2849 417.719 57.3584C414.454 53.4194 419.709 46.4429 421.054 42.5326C421.367 41.6252 421.432 40.5875 421.527 39.6365C419.084 41.8056 417.009 44.3249 414.502 46.4733C411.847 48.7465 408.926 50.3943 406.105 52.4136C403.535 54.253 401.139 56.7029 398.246 58.0246C397.132 58.5336 395.847 58.689 394.635 58.5909C392.954 58.4551 391.004 57.6484 389.898 56.3244C389.355 55.6714 389.236 54.8154 389.243 53.9929C389.286 48.16 397.359 45.4246 397.675 40.8698C397.713 40.2993 397.518 39.7379 397.14 39.3107C396.233 38.2775 394.388 38.3696 393.106 38.2762C392.819 38.9108 392.52 39.5396 392.209 40.162C389.741 45.0183 366.789 61.9787 361.094 58.4506C351.424 52.4617 367.429 35.3368 375.012 35.0976C376.989 35.0353 378.598 37.9227 377.407 39.7255C375.921 42.5216 372.925 44.069 370.492 45.9767C367.875 48.088 364.993 48.4771 361.801 49.3382C361.731 51.7995 361.664 55.1417 365.295 54.6402C374.247 53.3967 382.022 47.5513 388.018 41.1326C390.919 38.0293 389.721 37.6225 388.755 34.3911C388.499 33.5315 389.527 32.2898 390.125 31.6044ZM369.087 39.9644C368.437 40.8598 367.763 41.7904 366.993 42.5869C365.885 43.7372 362.959 45.5779 362.411 46.9459C362.981 47.0946 363.392 47.0199 363.96 46.8841C366.288 45.6045 372.586 42.8046 373.336 40.1612C373.383 39.9923 373.405 39.8216 373.41 39.6462L373.077 39.2292C372.773 39.1978 372.412 39.1213 372.108 39.1517L369.087 39.9644ZM494.936 40.0137C494.214 40.9647 493.49 42.0435 492.623 42.8704C491.213 44.2173 489.316 45.4271 488.143 46.9631C488.653 47.2374 489.458 46.9377 490.003 46.8129C492.322 45.5694 498.487 42.7287 499.244 40.148C499.297 39.9709 499.317 39.792 499.314 39.6076C498.908 39.1375 498.674 39.1529 498.052 39.137C498.002 39.1358 497.994 39.1372 497.952 39.1402C496.956 39.4245 495.913 39.6674 494.936 40.0137ZM436.077 44.5454C436.364 43.5548 436.889 42.3056 436.603 41.2889C436.197 40.8506 436.032 40.8117 435.465 40.6655C435.35 41.6003 434.927 43.8174 435.532 44.6154C435.562 44.6573 435.597 44.6951 435.631 44.7328C435.768 44.6822 435.968 44.6368 436.077 44.5454Z" fill="#222121"/>
<path d="M99.8851 31.6186C103.636 31.5777 103.792 32.7532 103.881 36.1231C104.463 36.5404 106.913 36.285 107.758 36.2469C109.37 37.1329 109.96 37.7824 110.962 39.3039C109.512 45.3594 105.487 45.9274 102.969 50.6589C102.827 51.3637 102.854 52.593 103.281 53.1438C105.666 56.2272 108.393 54.5684 111.065 52.883C113.31 51.4666 117.717 49.2781 119.499 47.3689C122.329 44.3369 124.155 39.2237 127.062 36.1557C127.665 35.4838 129.223 35.5929 129.842 36.51C130.123 39.3301 126.631 42.2162 125.23 44.4315C124.721 45.2353 124.361 46.3305 124.045 47.2342C128.142 43.3027 132.278 37.0143 138.149 34.9658C139.142 34.6878 140.531 34.5998 141.419 35.2058C144.865 37.5599 143.48 40.4119 141.88 43.1086C144.924 40.9694 147.961 38.8251 151.014 36.6939C152.914 35.3677 154.249 35.3059 156.166 36.6939C162.175 41.0454 145.766 50.7072 151.261 54.5851C157.154 55.4517 172.456 43.2618 176.75 38.9952C178.12 37.6347 180.345 32.8586 182.722 34.4219C184.364 35.5015 181.839 37.9541 181.838 39.0134C181.83 46.7703 181.47 50.2874 176.812 56.6692C183.683 54.7837 188.074 50.3641 194.266 47.4118C194.46 47.3194 194.689 47.5835 194.835 47.7038L194.757 48.2868C193.322 50.3823 185.63 55.1063 183.034 57.1887C182.316 57.7645 178.045 59.7038 176.958 60.1161C174.977 60.8683 172.887 59.6014 171.1 58.7027C168.922 59.28 167.122 59.567 164.851 59.0981C162.272 58.5655 161.216 55.9141 163.779 54.5542C166.306 53.2136 170.267 54.6798 172.871 55.506C173.341 55.1759 173.707 54.8722 174.11 54.4588C179.637 48.7838 181.504 48.4405 178.866 40.3867C175.874 42.9616 166.122 50.199 162.749 52.1881C159.341 54.2401 152.175 62.1539 147.726 56.6944C143.439 51.4342 153.019 44.8541 154.305 40.2753C154.469 39.6931 154.026 39.1783 153.677 38.8001C151.318 38.1083 137.244 48.5902 135.419 51.274C134.415 52.7497 133.511 60.5596 130.108 57.234C128.721 54.3557 140.671 41.6885 138.624 38.6758C135.081 37.3676 121.906 51.6923 119.596 54.7605C118.504 56.2098 117.063 60.1951 114.637 58.8166C113.18 56.732 115.265 53.5569 116.425 51.8281C113.039 53.8694 108.386 59.6888 104.357 58.6948C92.0364 55.6552 103.575 47.1457 106.651 42.7361C109.189 39.0956 105.671 38.477 102.794 38.2999L102.562 38.7835C99.1789 45.7998 92.7496 48.3859 86.7723 52.8023C83.076 55.5331 70.8671 63.1066 68.3943 55.6186C67.5835 53.1615 67.7875 50.482 68.9609 48.1762C71.5873 42.9823 77.1719 37.7455 82.5625 35.5157C85.9642 33.902 88.8621 37.3143 86.9219 40.2813C85.3314 42.7137 79.8925 46.1616 77.3744 47.6432C76.4253 48.2016 72.6233 49.0601 71.5047 49.3579C71.4987 49.5395 71.4939 49.7211 71.4905 49.903C71.4521 51.8794 71.6576 54.9412 74.4949 54.6561C82.8649 53.8153 90.1027 48.6451 96.0148 42.9698C97.0091 42.0156 99.4127 39.503 99.5982 37.9379C99.1664 35.2132 97.0046 34.4705 99.8851 31.6186ZM78.8573 39.9729C78.1376 40.8825 77.4326 41.8955 76.6216 42.7237C75.3456 44.0262 72.8531 45.4241 72.063 47.0117C72.6046 47.0595 73.0556 47.0383 73.5887 46.9312C75.9686 45.682 82.248 42.8111 83.0394 40.1508C83.0885 39.9851 83.1091 39.8169 83.1069 39.6445L82.8507 39.2531C82.5132 39.1955 82.1409 39.0969 81.7995 39.1422C80.8273 39.4118 79.8071 39.638 78.8573 39.9729ZM168.616 57.0153L168.991 56.8845C168.341 55.9088 166.177 55.6129 165.073 55.3336C164.716 55.9465 164.412 56.2008 164.579 56.9288C165.134 57.3932 165.923 57.3038 166.6 57.2435C167.273 57.179 167.945 57.1027 168.616 57.0153Z" fill="#222121"/>
<path d="M262.354 9.93512L262.416 9.9253C264.448 9.60951 267.152 11.2091 267.237 13.4354C267.344 16.0622 266.296 23.4255 264.727 25.516C263.158 27.6078 259.659 34.7837 258.041 36.3894C254.362 40.0398 250.234 42.4959 247.388 47.2648C246.957 47.9868 246.525 48.2745 246.67 49.2278C248.921 53.666 256.028 49.2372 258.703 47.6587C259.129 47.4075 259.973 47.1432 260.446 47.3218C260.496 49.5898 252.31 53.9249 250.249 54.7715C249.063 54.5039 247.548 53.9852 246.361 53.6147C246.36 62.167 239.887 81.3125 230.413 83.3425C219.728 85.6321 229.73 69.7293 231.006 65.5838C232.702 60.0765 238.492 55.5069 241.667 50.9287C237.313 53.3127 235.953 53.9214 231 53.0872C229.729 54.4506 228.447 55.8034 227.153 57.1455C222.69 62.1279 212.243 58.0734 214.222 50.1135C216.603 40.5424 225.919 34.0248 235.705 36.1001C236.812 37.0705 238.34 38.8255 236.808 40.1131C234.097 40.6839 233.571 38.4142 231.51 37.8985C223.361 35.8585 219.452 44.8306 217.193 49.9361C217.44 51.2202 217.932 52.6074 218.342 53.8628C221.21 54.2199 223.686 54.0841 226.516 53.4921C227.283 52.8254 228.404 51.6148 229.148 50.8582C228.669 50.1341 228.292 49.3481 228.025 48.5219C226.679 44.4041 229.816 39.9207 234.321 41.7587C237.777 43.1688 234.454 47.6915 233.194 49.8867C235.049 50.6177 237.789 51.0455 239.499 49.8018C239.89 49.0773 239.775 49.4567 239.241 48.9019C237.597 47.191 239.061 45.3097 241.058 45.0394C242.68 44.8197 243.424 45.5701 244.59 46.4251C245.033 45.315 245.476 44.1719 246.079 43.1374C246.754 41.8093 248.925 39.1414 249.252 37.8653C250.826 31.7473 252.759 28.5254 256.24 23.4219C257.916 20.9613 259.213 14.3625 260.864 11.5491C261.226 10.9338 261.836 10.4015 262.354 9.93512ZM230.426 79.7122C231.803 79.6228 234.337 76.7397 235.283 75.6629C240.147 70.1247 245.025 60.0259 244.537 52.4661C244.501 51.9183 244.51 51.6756 244.149 51.2433C241.099 55.0687 240.259 57.4724 237.864 61.3324C234.944 66.0395 229.025 72.1669 229.716 78.1185C229.785 78.7124 229.978 79.2964 230.426 79.7122ZM250.754 39.7982C256.639 35.034 257.336 32.5777 261.91 26.9366C262.005 25.6373 262.095 24.6725 262.314 23.3787C262.71 21.0158 265.061 16.911 263.629 14.9134L262.565 14.5685C261.111 19.0019 258.158 23.9244 256.614 28.4973C256.021 30.251 253.065 32.9562 252.701 35.3151C252.36 36.4377 249.81 39.543 249.845 40.5566C250.127 40.3298 250.503 40.0466 250.754 39.7982ZM230.761 48.5013C231.608 48.1933 232.355 47.0251 232.722 46.2346C233.188 45.2303 233.329 44.3426 233.022 43.2638C232.768 43.109 232.602 43.0024 232.296 43.0348C231.306 43.6011 229.848 44.202 229.522 45.4017C229.34 46.0744 229.576 46.6753 229.916 47.2481C230.171 47.6781 230.449 48.1104 230.761 48.5013Z" fill="#222121"/>
<path d="M458.32 26.6322C458.952 26.7864 459.127 26.8156 459.605 27.2536C460.227 28.8421 458.365 31.5124 456.925 32.158C453.001 30.1481 455.802 27.922 458.32 26.6322Z" fill="#222121"/>
</g>
<defs>
<clipPath id="clip0_24_5498">
<rect width="510" height="83.9614" fill="white"/>
</clipPath>
</defs>
</svg>
