<svg width="378" height="352" viewBox="0 0 378 352" fill="none" xmlns="http://www.w3.org/2000/svg">
<path d="M254.312 29C269.22 29 282.943 32.6252 295.157 40.0625L296.335 40.7939L296.336 40.7949C299.525 42.8176 303.754 44.773 307.938 45.8721C312.326 47.0251 315.302 46.8866 316.806 46.3818L316.813 46.3789C319.815 45.373 322.781 44.2439 325.701 42.9961L326.286 42.751C329.229 41.5493 332.437 40.6624 335.696 40.5098C339.009 40.3547 343.897 40.9267 347.945 44.5596C352.412 48.5686 353.343 53.9863 352.836 58.1875C352.462 61.2814 351.32 64.129 349.945 66.6084C352.364 67.3905 355.002 68.8617 357.102 71.6123C361.268 77.071 360.047 83.0937 358.876 86.1846C357.653 89.4125 355.573 92.2569 353.509 94.5996L353.504 94.6045C350.321 98.213 346.985 101.659 343.482 104.945L343.48 104.946C339.965 108.244 336.894 111.264 334.771 113.635C334.394 114.055 334.079 114.424 333.815 114.739C333.818 115.222 333.822 115.72 333.822 116.231C333.822 135.481 331.004 154.644 325.419 173.688L325.418 173.693C319.789 192.857 311.261 211.18 299.891 228.643V228.644C288.502 246.131 274.925 261.618 259.184 275.08C243.076 288.855 223.844 299.68 201.697 307.674L201.696 307.675C179.318 315.75 155.493 319.74 130.312 319.74C96.8405 319.74 65.5727 312.21 36.6953 297.085C32.0819 294.669 27.3785 291.651 24.5137 288.216C23.7379 287.286 22.5788 285.722 21.8086 283.607C21.0274 281.463 20.2281 277.444 22.4287 273.206C24.6005 269.024 28.2775 267.371 30.374 266.76C32.4834 266.145 34.4042 266.127 35.6455 266.187H35.6445C38.029 266.301 40.5457 266.36 43.2061 266.36C62.2161 266.36 79.686 262.514 95.7656 254.867C90.3707 252.453 85.2365 249.407 80.377 245.747V245.746C72.7289 239.989 66.3247 233.224 61.2842 225.441V225.44C57.7353 219.96 55.5934 213.948 55.458 208.398C55.3936 205.758 55.7599 202.029 57.8779 198.546C58.0159 198.319 58.1621 198.096 58.3135 197.875C54.0064 194.428 50.0272 190.496 46.3779 186.103V186.102C34.3429 171.613 28.295 154.609 28.2949 135.613V135.194C28.295 131.055 30.4459 127.071 34.1943 124.855C35.3563 124.169 36.4878 123.765 37.4658 123.526C31.6231 112.294 28.7129 100.147 28.7129 87.2617C28.7129 80.1343 29.602 73.1854 31.4229 66.4502V66.4492C33.7351 57.9007 40.0543 51.1802 49.1729 49.9863C57.1785 48.9383 64.5375 52.5424 69.7539 57.6406L70.2529 58.1396C83.6544 71.8463 99.134 83.2421 116.751 92.3291H116.752C134.441 101.455 153.073 107.396 172.703 110.167L173.325 110.246C173.942 110.316 174.509 110.354 175.026 110.369C175.009 109.682 174.999 108.995 174.999 108.31C174.999 86.5209 182.824 67.5912 198.206 52.2051L198.209 52.2021C213.595 36.825 232.519 29 254.312 29ZM69.1787 215.64C69.1742 215.639 69.1696 215.639 69.165 215.639H69.1621C69.1676 215.639 69.1732 215.639 69.1787 215.64Z" fill="#E0BFC4" stroke="#FEFEFE" stroke-width="24"/>
</svg>
